<?xml version="1.0" encoding="UTF-8" standalone="no"?><!DOCTYPE svg PUBLIC "-//W3C//DTD SVG 1.1//EN" "http://www.w3.org/Graphics/SVG/1.1/DTD/svg11.dtd"><svg width="100%" height="100%" viewBox="0 0 1273 367" version="1.1" xmlns="http://www.w3.org/2000/svg" xmlns:xlink="http://www.w3.org/1999/xlink" xml:space="preserve" xmlns:serif="http://www.serif.com/" style="fill-rule:evenodd;clip-rule:evenodd;stroke-linejoin:round;stroke-miterlimit:2;"><path d="M0.011,4.833c-0.11,-1.01 0.62,-1.92 1.63,-2.03l10.58,-1.16l5.36,-0.6l0.69,-0.08l6.74,-0.75l0.05,-0l0.56,-0.06c0.23,-0.02 0.45,0.08 0.59,0.26l0.27,0.29c-0,-0 0.07,0.07 0.1,0.11l0.83,0.89c0.19,0.26 0.16,0.62 -0.07,0.85l-0.85,0.81l-3.07,2.94l-0.01,0.01l-6.18,5.92l2.53,-0.28l94.6,-10.32l5.36,-0.6l0.69,-0.08l6.74,-0.75l0.05,-0l0.56,-0.06c0.23,-0.02 0.45,0.08 0.59,0.26l0.27,0.29c-0,-0 0.07,0.07 0.1,0.11l0.83,0.89c0.19,0.26 0.16,0.62 -0.07,0.85l-0.85,0.81l-3.07,2.94l-0.01,0.01l-6.18,5.92l2.53,-0.28l25.45,-2.77l58.56,-6.4l10.58,-1.16l5.36,-0.6l0.69,-0.08l6.74,-0.75l0.05,-0l0.56,-0.06c0.23,-0.02 0.45,0.08 0.59,0.26l0.27,0.29c-0,-0 0.07,0.07 0.1,0.11l0.83,0.89c0.19,0.26 0.16,0.62 -0.07,0.85l-0.85,0.81l-3.07,2.94l-0.01,0.01l-6.18,5.92l2.53,-0.28l93.91,-10.21l0.68,-0.07l5.36,-0.6l0.69,-0.08l6.74,-0.75l0.04,-0l0.56,-0.06c0.23,-0.02 0.45,0.08 0.59,0.26l0.27,0.29c-0,-0 0.07,0.07 0.1,0.11l0.83,0.89c0.19,0.26 0.16,0.62 -0.07,0.85l-0.85,0.81l-3.07,2.94l-0.01,0.01l-6.18,5.92l2.52,-0.27l94.62,-10.33l5.36,-0.6l0.69,-0.08l6.74,-0.75l0.05,-0l0.56,-0.06c0.23,-0.02 0.45,0.08 0.59,0.26l0.27,0.29c-0,-0 0.07,0.07 0.1,0.11l0.83,0.89c0.19,0.26 0.16,0.62 -0.07,0.85l-0.85,0.81l-3.07,2.94l-0.01,0.01l-6.18,5.92l2.53,-0.28l25.45,-2.77l58.56,-6.4l10.58,-1.16l5.36,-0.6l0.69,-0.08l6.74,-0.75l0.05,-0l0.56,-0.06c0.23,-0.02 0.45,0.08 0.59,0.26l0.27,0.29c-0,-0 0.07,0.07 0.1,0.11l0.83,0.89c0.19,0.26 0.16,0.62 -0.07,0.85l-0.85,0.81l-3.07,2.94l-0.01,0.01l-6.18,5.92l2.53,-0.28l93.94,-10.26l0.67,-0.07l5.36,-0.6l0.69,-0.08l6.74,-0.75l0.04,-0l0.56,-0.06c0.23,-0.02 0.45,0.08 0.59,0.26l0.27,0.29c-0,-0 0.07,0.07 0.1,0.11l0.83,0.89c0.19,0.26 0.16,0.62 -0.07,0.85l-0.85,0.81l-3.07,2.94l-0.01,0.01l-6.18,5.92l2.52,-0.27l94.61,-10.33l5.36,-0.6l0.69,-0.08l6.74,-0.75l0.05,-0l0.56,-0.06c0.23,-0.02 0.45,0.08 0.59,0.26l0.27,0.29c-0,-0 0.07,0.07 0.1,0.11l0.83,0.89c0.19,0.26 0.16,0.62 -0.07,0.85l-0.85,0.81l-3.07,2.94l-0.01,0.01l-6.18,5.92l2.53,-0.28l25.45,-2.77l58.56,-6.4l10.58,-1.16l5.36,-0.6l0.69,-0.08l6.74,-0.75l0.05,-0l0.56,-0.06c0.23,-0.02 0.45,0.08 0.59,0.26l0.27,0.29c-0,-0 0.07,0.07 0.1,0.11l0.83,0.89c0.19,0.26 0.16,0.62 -0.07,0.85l-0.85,0.81l-3.07,2.94l-0.01,0.01l-6.18,5.92l2.53,-0.28l93.93,-10.26l0.68,-0.07l5.36,-0.6l0.69,-0.08l6.74,-0.75l0.04,-0l0.56,-0.06c0.23,-0.02 0.45,0.08 0.59,0.26l0.27,0.29c-0,-0 0.07,0.07 0.1,0.11l0.83,0.89c0.19,0.26 0.16,0.62 -0.07,0.85l-0.85,0.81l-3.07,2.94l-0.01,0.01l-6.18,5.92l2.52,-0.27l94.61,-10.33l5.36,-0.6l0.69,-0.08l6.74,-0.75l0.05,-0l0.56,-0.06c0.23,-0.02 0.45,0.08 0.59,0.26l0.27,0.29c-0,-0 0.07,0.07 0.1,0.11l0.83,0.89c0.19,0.26 0.16,0.62 -0.07,0.85l-0.85,0.81l-3.07,2.94l-0.01,0.01l-6.18,5.92l2.53,-0.28l25.45,-2.77l58.56,-6.4l10.58,-1.16l5.36,-0.6l0.69,-0.08l6.74,-0.75l0.05,-0l0.56,-0.06c0.23,-0.02 0.45,0.08 0.59,0.26l0.27,0.29c-0,-0 0.07,0.07 0.1,0.11l0.83,0.89c0.19,0.26 0.16,0.62 -0.07,0.85l-0.85,0.81l-3.07,2.94l-0.01,0.01l-6.18,5.92l2.53,-0.28l94.61,-10.33l5.36,-0.6l0.69,-0.08l6.74,-0.75l0.05,-0l0.56,-0.06c0.23,-0.02 0.45,0.08 0.59,0.26l0.27,0.29c-0,-0 0.07,0.07 0.1,0.11l0.83,0.89c0.19,0.26 0.16,0.62 -0.07,0.85l-0.85,0.81l-3.07,2.94l-0.01,0.01l-6.18,5.92l2.53,-0.28l25.45,-2.77c0.48,-0.05 0.97,0.08 1.35,0.39c0.39,0.31 0.63,0.75 0.68,1.24c0.11,1.01 -0.62,1.92 -1.63,2.03l-12.8,1.39l-13.4,1.46l-0.02,-0l-7.35,0.8l-0.01,-0l-0.37,0.04c-0.25,0.01 -0.47,-0.08 -0.61,-0.27l-0.33,-0.34c-0,-0 -0.02,-0.02 -0.03,-0.03l-0.84,-0.86c-0.2,-0.27 -0.17,-0.65 0.07,-0.88l0.81,-0.78c-0,-0 0.02,-0.04 0.04,-0.05l2.71,-2.59l0.15,-0.14l5.4,-5.17l0.99,-0.95l-7.21,0.8l-0.85,0.09l-0.05,-0l-9.85,1.09l-0.06,-0l-71.32,7.79l-13.4,1.46l-0.02,-0l-7.35,0.8l-0.01,-0l-0.37,0.04c-0.25,0.01 -0.47,-0.08 -0.61,-0.27l-0.33,-0.34c-0,-0 -0.02,-0.02 -0.03,-0.03l-0.84,-0.86c-0.2,-0.27 -0.17,-0.65 0.07,-0.88l0.81,-0.78c-0,-0 0.02,-0.04 0.04,-0.05l2.71,-2.59l0.15,-0.14l5.4,-5.17l0.99,-0.95l-7.21,0.8l-10.74,1.18l-58.56,6.4l-12.8,1.39l-13.4,1.46l-0.02,-0l-7.35,0.8l-0.01,-0l-0.37,0.04c-0.25,0.01 -0.47,-0.08 -0.61,-0.27l-0.33,-0.34c-0,-0 -0.02,-0.02 -0.03,-0.03l-0.84,-0.86c-0.2,-0.27 -0.17,-0.65 0.07,-0.88l0.81,-0.78c-0,-0 0.02,-0.04 0.04,-0.05l2.71,-2.59l0.15,-0.14l5.4,-5.17l0.99,-0.95l-7.21,0.8l-0.85,0.09l-0.05,-0l-9.85,1.09l-0.06,-0l-58.44,6.38c-0,-0 -0.05,0.01 -0.08,0.02l-12.8,1.39l-13.4,1.46l-0.02,-0l-7.35,0.8l-0.01,-0l-0.37,0.04c-0.25,0.01 -0.47,-0.08 -0.61,-0.27l-0.33,-0.34c-0,-0 -0.02,-0.02 -0.03,-0.03l-0.84,-0.86c-0.2,-0.27 -0.17,-0.65 0.07,-0.88l0.81,-0.78c-0,-0 0.02,-0.04 0.04,-0.05l2.71,-2.59l0.15,-0.14l5.4,-5.17l0.99,-0.95l-7.21,0.8l-0.85,0.09l-0.05,-0l-9.85,1.09l-0.06,-0l-71.32,7.79l-13.4,1.46l-0.02,-0l-7.35,0.8l-0.01,-0l-0.37,0.04c-0.25,0.01 -0.47,-0.08 -0.61,-0.27l-0.33,-0.34c-0,-0 -0.02,-0.02 -0.03,-0.03l-0.84,-0.86c-0.2,-0.27 -0.17,-0.65 0.07,-0.88l0.81,-0.78c-0,-0 0.02,-0.04 0.04,-0.05l2.71,-2.59l0.15,-0.14l5.4,-5.17l0.99,-0.95l-7.21,0.8l-10.74,1.18l-58.56,6.4l-12.8,1.39l-13.4,1.46l-0.02,-0l-7.35,0.8l-0.01,-0l-0.37,0.04c-0.25,0.01 -0.47,-0.08 -0.61,-0.27l-0.33,-0.34c-0,-0 -0.02,-0.02 -0.03,-0.03l-0.84,-0.86c-0.2,-0.27 -0.17,-0.65 0.07,-0.88l0.81,-0.78c-0,-0 0.02,-0.04 0.04,-0.05l2.71,-2.59l0.15,-0.14l5.4,-5.17l0.99,-0.95l-7.21,0.8l-0.85,0.09l-0.05,-0l-9.85,1.09l-0.06,-0l-58.44,6.38c-0,-0 -0.05,0.01 -0.08,0.02l-12.8,1.39l-13.4,1.46l-0.02,-0l-7.35,0.8l-0.01,-0l-0.37,0.04c-0.25,0.01 -0.47,-0.08 -0.61,-0.27l-0.33,-0.34c-0,-0 -0.02,-0.02 -0.03,-0.03l-0.84,-0.86c-0.2,-0.27 -0.17,-0.65 0.07,-0.88l0.81,-0.78c-0,-0 0.02,-0.04 0.04,-0.05l2.71,-2.59l0.15,-0.14l5.4,-5.17l0.99,-0.95l-7.21,0.8l-0.85,0.09l-0.05,-0l-9.85,1.09l-0.06,-0l-71.32,7.79l-13.4,1.46l-0.02,-0l-7.35,0.8l-0.01,-0l-0.37,0.04c-0.25,0.01 -0.47,-0.08 -0.61,-0.27l-0.33,-0.34c-0,-0 -0.02,-0.02 -0.03,-0.03l-0.84,-0.86c-0.2,-0.27 -0.17,-0.65 0.07,-0.88l0.81,-0.78c-0,-0 0.02,-0.04 0.04,-0.05l2.71,-2.59l0.15,-0.14l5.4,-5.17l0.99,-0.95l-7.21,0.8l-10.74,1.18l-58.56,6.4l-12.8,1.39l-13.4,1.46l-0.02,-0l-7.35,0.8l-0.01,-0l-0.37,0.04c-0.25,0.01 -0.47,-0.08 -0.61,-0.27l-0.33,-0.34c-0,-0 -0.02,-0.02 -0.03,-0.03l-0.84,-0.86c-0.2,-0.27 -0.17,-0.65 0.07,-0.88l0.81,-0.78c-0,-0 0.02,-0.04 0.04,-0.05l2.71,-2.59l0.15,-0.14l5.4,-5.17l0.99,-0.95l-7.21,0.8l-0.85,0.09l-0.05,-0l-9.85,1.09l-0.06,-0l-58.44,6.38c-0,-0 -0.05,0.01 -0.08,0.02l-12.8,1.39l-13.4,1.46l-0.02,-0l-7.35,0.8l-0.01,-0l-0.37,0.04c-0.25,0.01 -0.47,-0.08 -0.61,-0.27l-0.33,-0.34c-0,-0 -0.02,-0.02 -0.03,-0.03l-0.84,-0.86c-0.2,-0.27 -0.17,-0.65 0.07,-0.88l0.81,-0.78c-0,-0 0.02,-0.04 0.04,-0.05l2.71,-2.59l0.15,-0.14l5.4,-5.17l0.99,-0.95l-7.21,0.8l-0.85,0.09l-0.05,-0l-9.85,1.09l-0.06,-0l-71.32,7.79l-13.4,1.46l-0.02,-0l-7.35,0.8l-0.01,-0l-0.37,0.04c-0.25,0.01 -0.47,-0.08 -0.61,-0.27l-0.33,-0.34c-0,-0 -0.02,-0.02 -0.03,-0.03l-0.84,-0.86c-0.2,-0.27 -0.17,-0.65 0.07,-0.88l0.81,-0.78c-0,-0 0.02,-0.04 0.04,-0.05l2.71,-2.59l0.15,-0.14l5.4,-5.17l0.99,-0.95l-7.21,0.8l-10.74,1.18l-58.56,6.4l-12.8,1.39l-13.4,1.46l-0.02,-0l-7.35,0.8l-0.01,-0l-0.37,0.04c-0.25,0.01 -0.47,-0.08 -0.61,-0.27l-0.33,-0.34c-0,-0 -0.02,-0.02 -0.03,-0.03l-0.84,-0.86c-0.2,-0.27 -0.17,-0.65 0.07,-0.88l0.81,-0.78c-0,-0 0.02,-0.04 0.04,-0.05l2.71,-2.59l0.15,-0.14l5.4,-5.17l0.99,-0.95l-7.21,0.8l-0.85,0.09l-0.05,-0l-9.85,1.09l-0.06,-0l-71.32,7.79l-13.4,1.46l-0.02,-0l-7.35,0.8l-0.01,-0l-0.37,0.04c-0.25,0.01 -0.47,-0.08 -0.61,-0.27l-0.33,-0.34c-0,-0 -0.02,-0.02 -0.03,-0.03l-0.84,-0.86c-0.2,-0.27 -0.17,-0.65 0.07,-0.88l0.81,-0.78c-0,-0 0.02,-0.04 0.04,-0.05l2.71,-2.59l0.15,-0.14l5.4,-5.17l0.99,-0.95l-7.21,0.8l-10.74,1.18c-0.48,0.05 -0.97,-0.08 -1.35,-0.39c-0.39,-0.31 -0.63,-0.75 -0.68,-1.24l-0.23,0.04Z" style="fill:#ef476b;fill-opacity:0.3;fill-rule:nonzero;"/><path d="M0.011,54.833c-0.11,-1.01 0.62,-1.92 1.63,-2.03l10.58,-1.16l5.36,-0.6l0.69,-0.08l6.74,-0.75l0.05,-0l0.56,-0.06c0.23,-0.02 0.45,0.08 0.59,0.26l0.27,0.29c-0,-0 0.07,0.07 0.1,0.11l0.83,0.89c0.19,0.26 0.16,0.62 -0.07,0.85l-0.85,0.81l-3.07,2.94l-0.01,0.01l-6.18,5.92l2.53,-0.28l94.61,-10.33l5.36,-0.6l0.69,-0.08l6.74,-0.75l0.05,-0l0.56,-0.06c0.23,-0.02 0.45,0.08 0.59,0.26l0.27,0.29c-0,-0 0.07,0.07 0.1,0.11l0.83,0.89c0.19,0.26 0.16,0.62 -0.07,0.85l-0.85,0.81l-3.07,2.94l-0.01,0.01l-6.18,5.92l2.53,-0.28l25.45,-2.77l58.56,-6.4l10.58,-1.16l5.36,-0.6l0.69,-0.08l6.74,-0.75l0.05,-0l0.56,-0.06c0.23,-0.02 0.45,0.08 0.59,0.26l0.27,0.29c-0,-0 0.07,0.07 0.1,0.11l0.83,0.89c0.19,0.26 0.16,0.62 -0.07,0.85l-0.85,0.81l-3.07,2.94l-0.01,0.01l-6.18,5.92l2.53,-0.28l93.93,-10.26l0.68,-0.07l5.36,-0.6l0.69,-0.08l6.74,-0.75l0.04,-0l0.56,-0.06c0.23,-0.02 0.45,0.08 0.59,0.26l0.27,0.29c-0,-0 0.07,0.07 0.1,0.11l0.83,0.89c0.19,0.26 0.16,0.62 -0.07,0.85l-0.85,0.81l-3.07,2.94l-0.01,0.01l-6.18,5.92l2.52,-0.27l94.61,-10.33l5.36,-0.6l0.69,-0.08l6.74,-0.75l0.05,-0l0.56,-0.06c0.23,-0.02 0.45,0.08 0.59,0.26l0.27,0.29c-0,-0 0.07,0.07 0.1,0.11l0.83,0.89c0.19,0.26 0.16,0.62 -0.07,0.85l-0.85,0.81l-3.07,2.94l-0.01,0.01l-6.18,5.92l2.53,-0.28l25.45,-2.77l58.56,-6.4l10.58,-1.16l5.36,-0.6l0.69,-0.08l6.74,-0.75l0.05,-0l0.56,-0.06c0.23,-0.02 0.45,0.08 0.59,0.26l0.27,0.29c-0,-0 0.07,0.07 0.1,0.11l0.83,0.89c0.19,0.26 0.16,0.62 -0.07,0.85l-0.85,0.81l-3.07,2.94l-0.01,0.01l-6.18,5.92l2.53,-0.28l93.94,-10.26l0.67,-0.07l5.36,-0.6l0.69,-0.08l6.74,-0.75l0.04,-0l0.56,-0.06c0.23,-0.02 0.45,0.08 0.59,0.26l0.27,0.29c-0,-0 0.07,0.07 0.1,0.11l0.83,0.89c0.19,0.26 0.16,0.62 -0.07,0.85l-0.85,0.81l-3.07,2.94l-0.01,0.01l-6.18,5.92l2.52,-0.27l94.61,-10.33l5.36,-0.6l0.69,-0.08l6.74,-0.75l0.05,-0l0.56,-0.06c0.23,-0.02 0.45,0.08 0.59,0.26l0.27,0.29c-0,-0 0.07,0.07 0.1,0.11l0.83,0.89c0.19,0.26 0.16,0.62 -0.07,0.85l-0.85,0.81l-3.07,2.94l-0.01,0.01l-6.18,5.92l2.53,-0.28l25.45,-2.77l58.56,-6.4l10.58,-1.16l5.36,-0.6l0.69,-0.08l6.74,-0.75l0.05,-0l0.56,-0.06c0.23,-0.02 0.45,0.08 0.59,0.26l0.27,0.29c-0,-0 0.07,0.07 0.1,0.11l0.83,0.89c0.19,0.26 0.16,0.62 -0.07,0.85l-0.85,0.81l-3.07,2.94l-0.01,0.01l-6.18,5.92l2.53,-0.28l93.93,-10.26l0.68,-0.07l5.36,-0.6l0.69,-0.08l6.74,-0.75l0.04,-0l0.56,-0.06c0.23,-0.02 0.45,0.08 0.59,0.26l0.27,0.29c-0,-0 0.07,0.07 0.1,0.11l0.83,0.89c0.19,0.26 0.16,0.62 -0.07,0.85l-0.85,0.81l-3.07,2.94l-0.01,0.01l-6.18,5.92l2.52,-0.27l94.61,-10.33l5.36,-0.6l0.69,-0.08l6.74,-0.75l0.05,-0l0.56,-0.06c0.23,-0.02 0.45,0.08 0.59,0.26l0.27,0.29c-0,-0 0.07,0.07 0.1,0.11l0.83,0.89c0.19,0.26 0.16,0.62 -0.07,0.85l-0.85,0.81l-3.07,2.94l-0.01,0.01l-6.18,5.92l2.53,-0.28l25.45,-2.77l58.56,-6.4l10.58,-1.16l5.36,-0.6l0.69,-0.08l6.74,-0.75l0.05,-0l0.56,-0.06c0.23,-0.02 0.45,0.08 0.59,0.26l0.27,0.29c-0,-0 0.07,0.07 0.1,0.11l0.83,0.89c0.19,0.26 0.16,0.62 -0.07,0.85l-0.85,0.81l-3.07,2.94l-0.01,0.01l-6.18,5.92l2.53,-0.28l94.61,-10.33l5.36,-0.6l0.69,-0.08l6.74,-0.75l0.05,-0l0.56,-0.06c0.23,-0.02 0.45,0.08 0.59,0.26l0.27,0.29c-0,-0 0.07,0.07 0.1,0.11l0.83,0.89c0.19,0.26 0.16,0.62 -0.07,0.85l-0.85,0.81l-3.07,2.94l-0.01,0.01l-6.18,5.92l2.53,-0.28l25.45,-2.77c0.48,-0.05 0.97,0.08 1.35,0.39c0.39,0.31 0.63,0.75 0.68,1.24c0.11,1.01 -0.62,1.92 -1.63,2.03l-12.8,1.39l-13.4,1.46l-0.02,-0l-7.35,0.8l-0.01,-0l-0.37,0.04c-0.25,0.01 -0.47,-0.08 -0.61,-0.27l-0.33,-0.34c-0,-0 -0.02,-0.02 -0.03,-0.03l-0.84,-0.86c-0.2,-0.27 -0.17,-0.65 0.07,-0.88l0.81,-0.78c-0,-0 0.02,-0.04 0.04,-0.05l2.71,-2.59l0.15,-0.14l5.4,-5.17l0.99,-0.95l-7.21,0.8l-0.85,0.09l-0.05,-0l-9.85,1.09l-0.06,-0l-71.32,7.79l-13.4,1.46l-0.02,-0l-7.35,0.8l-0.01,-0l-0.37,0.04c-0.25,0.01 -0.47,-0.08 -0.61,-0.27l-0.33,-0.34c-0,-0 -0.02,-0.02 -0.03,-0.03l-0.84,-0.86c-0.2,-0.27 -0.17,-0.65 0.07,-0.88l0.81,-0.78c-0,-0 0.02,-0.04 0.04,-0.05l2.71,-2.59l0.15,-0.14l5.4,-5.17l0.99,-0.95l-7.21,0.8l-10.74,1.18l-58.56,6.4l-12.8,1.39l-13.4,1.46l-0.02,-0l-7.35,0.8l-0.01,-0l-0.37,0.04c-0.25,0.01 -0.47,-0.08 -0.61,-0.27l-0.33,-0.34c-0,-0 -0.02,-0.02 -0.03,-0.03l-0.84,-0.86c-0.2,-0.27 -0.17,-0.65 0.07,-0.88l0.81,-0.78c-0,-0 0.02,-0.04 0.04,-0.05l2.71,-2.59l0.15,-0.14l5.4,-5.17l0.99,-0.95l-7.21,0.8l-0.85,0.09l-0.05,-0l-9.85,1.09l-0.06,-0l-58.44,6.38c-0,-0 -0.05,0.01 -0.08,0.02l-12.8,1.39l-13.4,1.46l-0.02,-0l-7.35,0.8l-0.01,-0l-0.37,0.04c-0.25,0.01 -0.47,-0.08 -0.61,-0.27l-0.33,-0.34c-0,-0 -0.02,-0.02 -0.03,-0.03l-0.84,-0.86c-0.2,-0.27 -0.17,-0.65 0.07,-0.88l0.81,-0.78c-0,-0 0.02,-0.04 0.04,-0.05l2.71,-2.59l0.15,-0.14l5.4,-5.17l0.99,-0.95l-7.21,0.8l-0.85,0.09l-0.05,-0l-9.85,1.09l-0.06,-0l-71.32,7.79l-13.4,1.46l-0.02,-0l-7.35,0.8l-0.01,-0l-0.37,0.04c-0.25,0.01 -0.47,-0.08 -0.61,-0.27l-0.33,-0.34c-0,-0 -0.02,-0.02 -0.03,-0.03l-0.84,-0.86c-0.2,-0.27 -0.17,-0.65 0.07,-0.88l0.81,-0.78c-0,-0 0.02,-0.04 0.04,-0.05l2.71,-2.59l0.15,-0.14l5.4,-5.17l0.99,-0.95l-7.21,0.8l-10.74,1.18l-58.56,6.4l-12.8,1.39l-13.4,1.46l-0.02,-0l-7.35,0.8l-0.01,-0l-0.37,0.04c-0.25,0.01 -0.47,-0.08 -0.61,-0.27l-0.33,-0.34c-0,-0 -0.02,-0.02 -0.03,-0.03l-0.84,-0.86c-0.2,-0.27 -0.17,-0.65 0.07,-0.88l0.81,-0.78c-0,-0 0.02,-0.04 0.04,-0.05l2.71,-2.59l0.15,-0.14l5.4,-5.17l0.99,-0.95l-7.21,0.8l-0.85,0.09l-0.05,-0l-9.85,1.09l-0.06,-0l-58.44,6.38c-0,-0 -0.05,0.01 -0.08,0.02l-12.8,1.39l-13.4,1.46l-0.02,-0l-7.35,0.8l-0.01,-0l-0.37,0.04c-0.25,0.01 -0.47,-0.08 -0.61,-0.27l-0.33,-0.34c-0,-0 -0.02,-0.02 -0.03,-0.03l-0.84,-0.86c-0.2,-0.27 -0.17,-0.65 0.07,-0.88l0.81,-0.78c-0,-0 0.02,-0.04 0.04,-0.05l2.71,-2.59l0.15,-0.14l5.4,-5.17l0.99,-0.95l-7.21,0.8l-0.85,0.09l-0.05,-0l-9.85,1.09l-0.06,-0l-71.32,7.79l-13.4,1.46l-0.02,-0l-7.35,0.8l-0.01,-0l-0.37,0.04c-0.25,0.01 -0.47,-0.08 -0.61,-0.27l-0.33,-0.34c-0,-0 -0.02,-0.02 -0.03,-0.03l-0.84,-0.86c-0.2,-0.27 -0.17,-0.65 0.07,-0.88l0.81,-0.78c-0,-0 0.02,-0.04 0.04,-0.05l2.71,-2.59l0.15,-0.14l5.4,-5.17l0.99,-0.95l-7.21,0.8l-10.74,1.18l-58.56,6.4l-12.8,1.39l-13.4,1.46l-0.02,-0l-7.35,0.8l-0.01,-0l-0.37,0.04c-0.25,0.01 -0.47,-0.08 -0.61,-0.27l-0.33,-0.34c-0,-0 -0.02,-0.02 -0.03,-0.03l-0.84,-0.86c-0.2,-0.27 -0.17,-0.65 0.07,-0.88l0.81,-0.78c-0,-0 0.02,-0.04 0.04,-0.05l2.71,-2.59l0.15,-0.14l5.4,-5.17l0.99,-0.95l-7.21,0.8l-0.85,0.09l-0.05,-0l-9.85,1.09l-0.06,-0l-58.44,6.38c-0,-0 -0.05,0.01 -0.08,0.02l-12.8,1.39l-13.4,1.46l-0.02,-0l-7.35,0.8l-0.01,-0l-0.37,0.04c-0.25,0.01 -0.47,-0.08 -0.61,-0.27l-0.33,-0.34c-0,-0 -0.02,-0.02 -0.03,-0.03l-0.84,-0.86c-0.2,-0.27 -0.17,-0.65 0.07,-0.88l0.81,-0.78c-0,-0 0.02,-0.04 0.04,-0.05l2.71,-2.59l0.15,-0.14l5.4,-5.17l0.99,-0.95l-7.21,0.8l-0.85,0.09l-0.05,-0l-9.85,1.09l-0.06,-0l-71.32,7.79l-13.4,1.46l-0.02,-0l-7.35,0.8l-0.01,-0l-0.37,0.04c-0.25,0.01 -0.47,-0.08 -0.61,-0.27l-0.33,-0.34c-0,-0 -0.02,-0.02 -0.03,-0.03l-0.84,-0.86c-0.2,-0.27 -0.17,-0.65 0.07,-0.88l0.81,-0.78c-0,-0 0.02,-0.04 0.04,-0.05l2.71,-2.59l0.15,-0.14l5.4,-5.17l0.99,-0.95l-7.21,0.8l-10.74,1.18l-58.56,6.4l-12.8,1.39l-13.4,1.46l-0.02,-0l-7.35,0.8l-0.01,-0l-0.37,0.04c-0.25,0.01 -0.47,-0.08 -0.61,-0.27l-0.33,-0.34c-0,-0 -0.02,-0.02 -0.03,-0.03l-0.84,-0.86c-0.2,-0.27 -0.17,-0.65 0.07,-0.88l0.81,-0.78c-0,-0 0.02,-0.04 0.04,-0.05l2.71,-2.59l0.15,-0.14l5.4,-5.17l0.99,-0.95l-7.21,0.8l-0.85,0.09l-0.05,-0l-9.85,1.09l-0.06,-0l-71.32,7.79l-13.4,1.46l-0.02,-0l-7.35,0.8l-0.01,-0l-0.37,0.04c-0.25,0.01 -0.47,-0.08 -0.61,-0.27l-0.33,-0.34c-0,-0 -0.02,-0.02 -0.03,-0.03l-0.84,-0.86c-0.2,-0.27 -0.17,-0.65 0.07,-0.88l0.81,-0.78c-0,-0 0.02,-0.04 0.04,-0.05l2.71,-2.59l0.15,-0.14l5.4,-5.17l0.99,-0.95l-7.21,0.8l-10.74,1.18c-0.48,0.05 -0.97,-0.08 -1.35,-0.39c-0.39,-0.31 -0.63,-0.75 -0.68,-1.24l-0.25,0.1Z" style="fill:#ef476b;fill-opacity:0.3;fill-rule:nonzero;"/><path d="M0.011,104.833c-0.11,-1.01 0.62,-1.92 1.63,-2.03l10.58,-1.16l5.36,-0.6l0.69,-0.08l6.74,-0.75l0.05,-0l0.56,-0.06c0.23,-0.02 0.45,0.08 0.59,0.26l0.27,0.29c-0,-0 0.07,0.07 0.1,0.11l0.83,0.89c0.19,0.26 0.16,0.62 -0.07,0.85l-0.85,0.81l-3.07,2.94l-0.01,0.01l-6.18,5.92l2.53,-0.28l94.61,-10.33l5.36,-0.6l0.69,-0.08l6.74,-0.75l0.05,-0l0.56,-0.06c0.23,-0.02 0.45,0.08 0.59,0.26l0.27,0.29c-0,-0 0.07,0.07 0.1,0.11l0.83,0.89c0.19,0.26 0.16,0.62 -0.07,0.85l-0.85,0.81l-3.07,2.94l-0.01,0.01l-6.18,5.92l2.53,-0.28l25.45,-2.77l58.56,-6.4l10.58,-1.16l5.36,-0.6l0.69,-0.08l6.74,-0.75l0.05,-0l0.56,-0.06c0.23,-0.02 0.45,0.08 0.59,0.26l0.27,0.29c-0,-0 0.07,0.07 0.1,0.11l0.83,0.89c0.19,0.26 0.16,0.62 -0.07,0.85l-0.85,0.81l-3.07,2.94l-0.01,0.01l-6.18,5.92l2.53,-0.28l93.93,-10.26l0.68,-0.07l5.36,-0.6l0.69,-0.08l6.74,-0.75l0.04,-0l0.56,-0.06c0.23,-0.02 0.45,0.08 0.59,0.26l0.27,0.29c-0,-0 0.07,0.07 0.1,0.11l0.83,0.89c0.19,0.26 0.16,0.62 -0.07,0.85l-0.85,0.81l-3.07,2.94l-0.01,0.01l-6.18,5.92l2.52,-0.27l94.61,-10.33l5.36,-0.6l0.69,-0.08l6.74,-0.75l0.05,-0l0.56,-0.06c0.23,-0.02 0.45,0.08 0.59,0.26l0.27,0.29c-0,-0 0.07,0.07 0.1,0.11l0.83,0.89c0.19,0.26 0.16,0.62 -0.07,0.85l-0.85,0.81l-3.07,2.94l-0.01,0.01l-6.18,5.92l2.53,-0.28l25.45,-2.77l58.56,-6.4l10.58,-1.16l5.36,-0.6l0.69,-0.08l6.74,-0.75l0.05,-0l0.56,-0.06c0.23,-0.02 0.45,0.08 0.59,0.26l0.27,0.29c-0,-0 0.07,0.07 0.1,0.11l0.83,0.89c0.19,0.26 0.16,0.62 -0.07,0.85l-0.85,0.81l-3.07,2.94l-0.01,0.01l-6.18,5.92l2.53,-0.28l93.94,-10.26l0.67,-0.07l5.36,-0.6l0.69,-0.08l6.74,-0.75l0.04,-0l0.56,-0.06c0.23,-0.02 0.45,0.08 0.59,0.26l0.27,0.29c-0,-0 0.07,0.07 0.1,0.11l0.83,0.89c0.19,0.26 0.16,0.62 -0.07,0.85l-0.85,0.81l-3.07,2.94l-0.01,0.01l-6.18,5.92l2.52,-0.27l94.61,-10.33l5.36,-0.6l0.69,-0.08l6.74,-0.75l0.05,-0l0.56,-0.06c0.23,-0.02 0.45,0.08 0.59,0.26l0.27,0.29c-0,-0 0.07,0.07 0.1,0.11l0.83,0.89c0.19,0.26 0.16,0.62 -0.07,0.85l-0.85,0.81l-3.07,2.94l-0.01,0.01l-6.18,5.92l2.53,-0.28l25.45,-2.77l58.56,-6.4l10.58,-1.16l5.36,-0.6l0.69,-0.08l6.74,-0.75l0.05,-0l0.56,-0.06c0.23,-0.02 0.45,0.08 0.59,0.26l0.27,0.29c-0,-0 0.07,0.07 0.1,0.11l0.83,0.89c0.19,0.26 0.16,0.62 -0.07,0.85l-0.85,0.81l-3.07,2.94l-0.01,0.01l-6.18,5.92l2.53,-0.28l93.93,-10.26l0.68,-0.07l5.36,-0.6l0.69,-0.08l6.74,-0.75l0.04,-0l0.56,-0.06c0.23,-0.02 0.45,0.08 0.59,0.26l0.27,0.29c-0,-0 0.07,0.07 0.1,0.11l0.83,0.89c0.19,0.26 0.16,0.62 -0.07,0.85l-0.85,0.81l-3.07,2.94l-0.01,0.01l-6.18,5.92l2.52,-0.27l94.61,-10.33l5.36,-0.6l0.69,-0.08l6.74,-0.75l0.05,-0l0.56,-0.06c0.23,-0.02 0.45,0.08 0.59,0.26l0.27,0.29c-0,-0 0.07,0.07 0.1,0.11l0.83,0.89c0.19,0.26 0.16,0.62 -0.07,0.85l-0.85,0.81l-3.07,2.94l-0.01,0.01l-6.18,5.92l2.53,-0.28l25.45,-2.77l58.56,-6.4l10.58,-1.16l5.36,-0.6l0.69,-0.08l6.74,-0.75l0.05,-0l0.56,-0.06c0.23,-0.02 0.45,0.08 0.59,0.26l0.27,0.29c-0,-0 0.07,0.07 0.1,0.11l0.83,0.89c0.19,0.26 0.16,0.62 -0.07,0.85l-0.85,0.81l-3.07,2.94l-0.01,0.01l-6.18,5.92l2.53,-0.28l94.61,-10.33l5.36,-0.6l0.69,-0.08l6.74,-0.75l0.05,-0l0.56,-0.06c0.23,-0.02 0.45,0.08 0.59,0.26l0.27,0.29c-0,-0 0.07,0.07 0.1,0.11l0.83,0.89c0.19,0.26 0.16,0.62 -0.07,0.85l-0.85,0.81l-3.07,2.94l-0.01,0.01l-6.18,5.92l2.53,-0.28l25.45,-2.77c0.48,-0.05 0.97,0.08 1.35,0.39c0.39,0.31 0.63,0.75 0.68,1.24c0.11,1.01 -0.62,1.92 -1.63,2.03l-12.8,1.39l-13.4,1.46l-0.02,-0l-7.35,0.8l-0.01,-0l-0.37,0.04c-0.25,0.01 -0.47,-0.08 -0.61,-0.27l-0.33,-0.34c-0,-0 -0.02,-0.02 -0.03,-0.03l-0.84,-0.86c-0.2,-0.27 -0.17,-0.65 0.07,-0.88l0.81,-0.78c-0,-0 0.02,-0.04 0.04,-0.05l2.71,-2.59l0.15,-0.14l5.4,-5.17l0.99,-0.95l-7.21,0.8l-0.85,0.09l-0.05,-0l-9.85,1.09l-0.06,-0l-71.32,7.79l-13.4,1.46l-0.02,-0l-7.35,0.8l-0.01,-0l-0.37,0.04c-0.25,0.01 -0.47,-0.08 -0.61,-0.27l-0.33,-0.34c-0,-0 -0.02,-0.02 -0.03,-0.03l-0.84,-0.86c-0.2,-0.27 -0.17,-0.65 0.07,-0.88l0.81,-0.78c-0,-0 0.02,-0.04 0.04,-0.05l2.71,-2.59l0.15,-0.14l5.4,-5.17l0.99,-0.95l-7.21,0.8l-10.74,1.18l-58.56,6.4l-12.8,1.39l-13.4,1.46l-0.02,-0l-7.35,0.8l-0.01,-0l-0.37,0.04c-0.25,0.01 -0.47,-0.08 -0.61,-0.27l-0.33,-0.34c-0,-0 -0.02,-0.02 -0.03,-0.03l-0.84,-0.86c-0.2,-0.27 -0.17,-0.65 0.07,-0.88l0.81,-0.78c-0,-0 0.02,-0.04 0.04,-0.05l2.71,-2.59l0.15,-0.14l5.4,-5.17l0.99,-0.95l-7.21,0.8l-0.85,0.09l-0.05,-0l-9.85,1.09l-0.06,-0l-58.44,6.38c-0,-0 -0.05,0.01 -0.08,0.02l-12.8,1.39l-13.4,1.46l-0.02,-0l-7.35,0.8l-0.01,-0l-0.37,0.04c-0.25,0.01 -0.47,-0.08 -0.61,-0.27l-0.33,-0.34c-0,-0 -0.02,-0.02 -0.03,-0.03l-0.84,-0.86c-0.2,-0.27 -0.17,-0.65 0.07,-0.88l0.81,-0.78c-0,-0 0.02,-0.04 0.04,-0.05l2.71,-2.59l0.15,-0.14l5.4,-5.17l0.99,-0.95l-7.21,0.8l-0.85,0.09l-0.05,-0l-9.85,1.09l-0.06,-0l-71.32,7.79l-13.4,1.46l-0.02,-0l-7.35,0.8l-0.01,-0l-0.37,0.04c-0.25,0.01 -0.47,-0.08 -0.61,-0.27l-0.33,-0.34c-0,-0 -0.02,-0.02 -0.03,-0.03l-0.84,-0.86c-0.2,-0.27 -0.17,-0.65 0.07,-0.88l0.81,-0.78c-0,-0 0.02,-0.04 0.04,-0.05l2.71,-2.59l0.15,-0.14l5.4,-5.17l0.99,-0.95l-7.21,0.8l-10.74,1.18l-58.56,6.4l-12.8,1.39l-13.4,1.46l-0.02,-0l-7.35,0.8l-0.01,-0l-0.37,0.04c-0.25,0.01 -0.47,-0.08 -0.61,-0.27l-0.33,-0.34c-0,-0 -0.02,-0.02 -0.03,-0.03l-0.84,-0.86c-0.2,-0.27 -0.17,-0.65 0.07,-0.88l0.81,-0.78c-0,-0 0.02,-0.04 0.04,-0.05l2.71,-2.59l0.15,-0.14l5.4,-5.17l0.99,-0.95l-7.21,0.8l-0.85,0.09l-0.05,-0l-9.85,1.09l-0.06,-0l-58.44,6.38c-0,-0 -0.05,0.01 -0.08,0.02l-12.8,1.39l-13.4,1.46l-0.02,-0l-7.35,0.8l-0.01,-0l-0.37,0.04c-0.25,0.01 -0.47,-0.08 -0.61,-0.27l-0.33,-0.34c-0,-0 -0.02,-0.02 -0.03,-0.03l-0.84,-0.86c-0.2,-0.27 -0.17,-0.65 0.07,-0.88l0.81,-0.78c-0,-0 0.02,-0.04 0.04,-0.05l2.71,-2.59l0.15,-0.14l5.4,-5.17l0.99,-0.95l-7.21,0.8l-0.85,0.09l-0.05,-0l-9.85,1.09l-0.06,-0l-71.32,7.79l-13.4,1.46l-0.02,-0l-7.35,0.8l-0.01,-0l-0.37,0.04c-0.25,0.01 -0.47,-0.08 -0.61,-0.27l-0.33,-0.34c-0,-0 -0.02,-0.02 -0.03,-0.03l-0.84,-0.86c-0.2,-0.27 -0.17,-0.65 0.07,-0.88l0.81,-0.78c-0,-0 0.02,-0.04 0.04,-0.05l2.71,-2.59l0.15,-0.14l5.4,-5.17l0.99,-0.95l-7.21,0.8l-10.74,1.18l-58.56,6.4l-12.8,1.39l-13.4,1.46l-0.02,-0l-7.35,0.8l-0.01,-0l-0.37,0.04c-0.25,0.01 -0.47,-0.08 -0.61,-0.27l-0.33,-0.34c-0,-0 -0.02,-0.02 -0.03,-0.03l-0.84,-0.86c-0.2,-0.27 -0.17,-0.65 0.07,-0.88l0.81,-0.78c-0,-0 0.02,-0.04 0.04,-0.05l2.71,-2.59l0.15,-0.14l5.4,-5.17l0.99,-0.95l-7.21,0.8l-0.85,0.09l-0.05,-0l-9.85,1.09l-0.06,-0l-58.44,6.38c-0,-0 -0.05,0.01 -0.08,0.02l-12.8,1.39l-13.4,1.46l-0.02,-0l-7.35,0.8l-0.01,-0l-0.37,0.04c-0.25,0.01 -0.47,-0.08 -0.61,-0.27l-0.33,-0.34c-0,-0 -0.02,-0.02 -0.03,-0.03l-0.84,-0.86c-0.2,-0.27 -0.17,-0.65 0.07,-0.88l0.81,-0.78c-0,-0 0.02,-0.04 0.04,-0.05l2.71,-2.59l0.15,-0.14l5.4,-5.17l0.99,-0.95l-7.21,0.8l-0.85,0.09l-0.05,-0l-9.85,1.09l-0.06,-0l-71.32,7.79l-13.4,1.46l-0.02,-0l-7.35,0.8l-0.01,-0l-0.37,0.04c-0.25,0.01 -0.47,-0.08 -0.61,-0.27l-0.33,-0.34c-0,-0 -0.02,-0.02 -0.03,-0.03l-0.84,-0.86c-0.2,-0.27 -0.17,-0.65 0.07,-0.88l0.81,-0.78c-0,-0 0.02,-0.04 0.04,-0.05l2.71,-2.59l0.15,-0.14l5.4,-5.17l0.99,-0.95l-7.21,0.8l-10.74,1.18l-58.56,6.4l-12.8,1.39l-13.4,1.46l-0.02,-0l-7.35,0.8l-0.01,-0l-0.37,0.04c-0.25,0.01 -0.47,-0.08 -0.61,-0.27l-0.33,-0.34c-0,-0 -0.02,-0.02 -0.03,-0.03l-0.84,-0.86c-0.2,-0.27 -0.17,-0.65 0.07,-0.88l0.81,-0.78c-0,-0 0.02,-0.04 0.04,-0.05l2.71,-2.59l0.15,-0.14l5.4,-5.17l0.99,-0.95l-7.21,0.8l-0.85,0.09l-0.05,-0l-9.85,1.09l-0.06,-0l-71.32,7.79l-13.4,1.46l-0.02,-0l-7.35,0.8l-0.01,-0l-0.37,0.04c-0.25,0.01 -0.47,-0.08 -0.61,-0.27l-0.33,-0.34c-0,-0 -0.02,-0.02 -0.03,-0.03l-0.84,-0.86c-0.2,-0.27 -0.17,-0.65 0.07,-0.88l0.81,-0.78c-0,-0 0.02,-0.04 0.04,-0.05l2.71,-2.59l0.15,-0.14l5.4,-5.17l0.99,-0.95l-7.21,0.8l-10.74,1.18c-0.48,0.05 -0.97,-0.08 -1.35,-0.39c-0.39,-0.31 -0.63,-0.75 -0.68,-1.24l-0.25,0.1Z" style="fill:#ef476b;fill-opacity:0.3;fill-rule:nonzero;"/><path d="M0.011,154.833c-0.11,-1.01 0.62,-1.92 1.63,-2.03l10.58,-1.16l5.36,-0.6l0.69,-0.08l6.74,-0.75l0.05,-0l0.56,-0.06c0.23,-0.02 0.45,0.08 0.59,0.26l0.27,0.29c-0,-0 0.07,0.07 0.1,0.11l0.83,0.89c0.19,0.26 0.16,0.62 -0.07,0.85l-0.85,0.81l-3.07,2.94l-0.01,0.01l-6.18,5.92l2.53,-0.28l94.61,-10.33l5.36,-0.6l0.69,-0.08l6.74,-0.75l0.05,-0l0.56,-0.06c0.23,-0.02 0.45,0.08 0.59,0.26l0.27,0.29c-0,-0 0.07,0.07 0.1,0.11l0.83,0.89c0.19,0.26 0.16,0.62 -0.07,0.85l-0.85,0.81l-3.07,2.94l-0.01,0.01l-6.18,5.92l2.53,-0.28l25.45,-2.77l58.56,-6.4l10.58,-1.16l5.36,-0.6l0.69,-0.08l6.74,-0.75l0.05,-0l0.56,-0.06c0.23,-0.02 0.45,0.08 0.59,0.26l0.27,0.29c-0,-0 0.07,0.07 0.1,0.11l0.83,0.89c0.19,0.26 0.16,0.62 -0.07,0.85l-0.85,0.81l-3.07,2.94l-0.01,0.01l-6.18,5.92l2.53,-0.28l93.93,-10.26l0.68,-0.07l5.36,-0.6l0.69,-0.08l6.74,-0.75l0.04,-0l0.56,-0.06c0.23,-0.02 0.45,0.08 0.59,0.26l0.27,0.29c-0,-0 0.07,0.07 0.1,0.11l0.83,0.89c0.19,0.26 0.16,0.62 -0.07,0.85l-0.85,0.81l-3.07,2.94l-0.01,0.01l-6.18,5.92l2.52,-0.27l94.61,-10.33l5.36,-0.6l0.69,-0.08l6.74,-0.75l0.05,-0l0.56,-0.06c0.23,-0.02 0.45,0.08 0.59,0.26l0.27,0.29c-0,-0 0.07,0.07 0.1,0.11l0.83,0.89c0.19,0.26 0.16,0.62 -0.07,0.85l-0.85,0.81l-3.07,2.94l-0.01,0.01l-6.18,5.92l2.53,-0.28l25.45,-2.77l58.56,-6.4l10.58,-1.16l5.36,-0.6l0.69,-0.08l6.74,-0.75l0.05,-0l0.56,-0.06c0.23,-0.02 0.45,0.08 0.59,0.26l0.27,0.29c-0,-0 0.07,0.07 0.1,0.11l0.83,0.89c0.19,0.26 0.16,0.62 -0.07,0.85l-0.85,0.81l-3.07,2.94l-0.01,0.01l-6.18,5.92l2.53,-0.28l93.94,-10.26l0.67,-0.07l5.36,-0.6l0.69,-0.08l6.74,-0.75l0.04,-0l0.56,-0.06c0.23,-0.02 0.45,0.08 0.59,0.26l0.27,0.29c-0,-0 0.07,0.07 0.1,0.11l0.83,0.89c0.19,0.26 0.16,0.62 -0.07,0.85l-0.85,0.81l-3.07,2.94l-0.01,0.01l-6.18,5.92l2.52,-0.27l94.61,-10.33l5.36,-0.6l0.69,-0.08l6.74,-0.75l0.05,-0l0.56,-0.06c0.23,-0.02 0.45,0.08 0.59,0.26l0.27,0.29c-0,-0 0.07,0.07 0.1,0.11l0.83,0.89c0.19,0.26 0.16,0.62 -0.07,0.85l-0.85,0.81l-3.07,2.94l-0.01,0.01l-6.18,5.92l2.53,-0.28l25.45,-2.77l58.56,-6.4l10.58,-1.16l5.36,-0.6l0.69,-0.08l6.74,-0.75l0.05,-0l0.56,-0.06c0.23,-0.02 0.45,0.08 0.59,0.26l0.27,0.29c-0,-0 0.07,0.07 0.1,0.11l0.83,0.89c0.19,0.26 0.16,0.62 -0.07,0.85l-0.85,0.81l-3.07,2.94l-0.01,0.01l-6.18,5.92l2.53,-0.28l93.93,-10.26l0.68,-0.07l5.36,-0.6l0.69,-0.08l6.74,-0.75l0.04,-0l0.56,-0.06c0.23,-0.02 0.45,0.08 0.59,0.26l0.27,0.29c-0,-0 0.07,0.07 0.1,0.11l0.83,0.89c0.19,0.26 0.16,0.62 -0.07,0.85l-0.85,0.81l-3.07,2.94l-0.01,0.01l-6.18,5.92l2.52,-0.27l94.61,-10.33l5.36,-0.6l0.69,-0.08l6.74,-0.75l0.05,-0l0.56,-0.06c0.23,-0.02 0.45,0.08 0.59,0.26l0.27,0.29c-0,-0 0.07,0.07 0.1,0.11l0.83,0.89c0.19,0.26 0.16,0.62 -0.07,0.85l-0.85,0.81l-3.07,2.94l-0.01,0.01l-6.18,5.92l2.53,-0.28l25.45,-2.77l58.56,-6.4l10.58,-1.16l5.36,-0.6l0.69,-0.08l6.74,-0.75l0.05,-0l0.56,-0.06c0.23,-0.02 0.45,0.08 0.59,0.26l0.27,0.29c-0,-0 0.07,0.07 0.1,0.11l0.83,0.89c0.19,0.26 0.16,0.62 -0.07,0.85l-0.85,0.81l-3.07,2.94l-0.01,0.01l-6.18,5.92l2.53,-0.28l94.61,-10.33l5.36,-0.6l0.69,-0.08l6.74,-0.75l0.05,-0l0.56,-0.06c0.23,-0.02 0.45,0.08 0.59,0.26l0.27,0.29c-0,-0 0.07,0.07 0.1,0.11l0.83,0.89c0.19,0.26 0.16,0.62 -0.07,0.85l-0.85,0.81l-3.07,2.94l-0.01,0.01l-6.18,5.92l2.53,-0.28l25.45,-2.77c0.48,-0.05 0.97,0.08 1.35,0.39c0.39,0.31 0.63,0.75 0.68,1.24c0.11,1.01 -0.62,1.92 -1.63,2.03l-12.8,1.39l-13.4,1.46l-0.02,-0l-7.35,0.8l-0.01,-0l-0.37,0.04c-0.25,0.01 -0.47,-0.08 -0.61,-0.27l-0.33,-0.34c-0,-0 -0.02,-0.02 -0.03,-0.03l-0.84,-0.86c-0.2,-0.27 -0.17,-0.65 0.07,-0.88l0.81,-0.78c-0,-0 0.02,-0.04 0.04,-0.05l2.71,-2.59l0.15,-0.14l5.4,-5.17l0.99,-0.95l-7.21,0.8l-0.85,0.09l-0.05,-0l-9.85,1.09l-0.06,-0l-71.32,7.79l-13.4,1.46l-0.02,-0l-7.35,0.8l-0.01,-0l-0.37,0.04c-0.25,0.01 -0.47,-0.08 -0.61,-0.27l-0.33,-0.34c-0,-0 -0.02,-0.02 -0.03,-0.03l-0.84,-0.86c-0.2,-0.27 -0.17,-0.65 0.07,-0.88l0.81,-0.78c-0,-0 0.02,-0.04 0.04,-0.05l2.71,-2.59l0.15,-0.14l5.4,-5.17l0.99,-0.95l-7.21,0.8l-10.74,1.18l-58.56,6.4l-12.8,1.39l-13.4,1.46l-0.02,-0l-7.35,0.8l-0.01,-0l-0.37,0.04c-0.25,0.01 -0.47,-0.08 -0.61,-0.27l-0.33,-0.34c-0,-0 -0.02,-0.02 -0.03,-0.03l-0.84,-0.86c-0.2,-0.27 -0.17,-0.65 0.07,-0.88l0.81,-0.78c-0,-0 0.02,-0.04 0.04,-0.05l2.71,-2.59l0.15,-0.14l5.4,-5.17l0.99,-0.95l-7.21,0.8l-0.85,0.09l-0.05,-0l-9.85,1.09l-0.06,-0l-58.44,6.38c-0,-0 -0.05,0.01 -0.08,0.02l-12.8,1.39l-13.4,1.46l-0.02,-0l-7.35,0.8l-0.01,-0l-0.37,0.04c-0.25,0.01 -0.47,-0.08 -0.61,-0.27l-0.33,-0.34c-0,-0 -0.02,-0.02 -0.03,-0.03l-0.84,-0.86c-0.2,-0.27 -0.17,-0.65 0.07,-0.88l0.81,-0.78c-0,-0 0.02,-0.04 0.04,-0.05l2.71,-2.59l0.15,-0.14l5.4,-5.17l0.99,-0.95l-7.21,0.8l-0.85,0.09l-0.05,-0l-9.85,1.09l-0.06,-0l-71.32,7.79l-13.4,1.46l-0.02,-0l-7.35,0.8l-0.01,-0l-0.37,0.04c-0.25,0.01 -0.47,-0.08 -0.61,-0.27l-0.33,-0.34c-0,-0 -0.02,-0.02 -0.03,-0.03l-0.84,-0.86c-0.2,-0.27 -0.17,-0.65 0.07,-0.88l0.81,-0.78c-0,-0 0.02,-0.04 0.04,-0.05l2.71,-2.59l0.15,-0.14l5.4,-5.17l0.99,-0.95l-7.21,0.8l-10.74,1.18l-58.56,6.4l-12.8,1.39l-13.4,1.46l-0.02,-0l-7.35,0.8l-0.01,-0l-0.37,0.04c-0.25,0.01 -0.47,-0.08 -0.61,-0.27l-0.33,-0.34c-0,-0 -0.02,-0.02 -0.03,-0.03l-0.84,-0.86c-0.2,-0.27 -0.17,-0.65 0.07,-0.88l0.81,-0.78c-0,-0 0.02,-0.04 0.04,-0.05l2.71,-2.59l0.15,-0.14l5.4,-5.17l0.99,-0.95l-7.21,0.8l-0.85,0.09l-0.05,-0l-9.85,1.09l-0.06,-0l-58.44,6.38c-0,-0 -0.05,0.01 -0.08,0.02l-12.8,1.39l-13.4,1.46l-0.02,-0l-7.35,0.8l-0.01,-0l-0.37,0.04c-0.25,0.01 -0.47,-0.08 -0.61,-0.27l-0.33,-0.34c-0,-0 -0.02,-0.02 -0.03,-0.03l-0.84,-0.86c-0.2,-0.27 -0.17,-0.65 0.07,-0.88l0.81,-0.78c-0,-0 0.02,-0.04 0.04,-0.05l2.71,-2.59l0.15,-0.14l5.4,-5.17l0.99,-0.95l-7.21,0.8l-0.85,0.09l-0.05,-0l-9.85,1.09l-0.06,-0l-71.32,7.79l-13.4,1.46l-0.02,-0l-7.35,0.8l-0.01,-0l-0.37,0.04c-0.25,0.01 -0.47,-0.08 -0.61,-0.27l-0.33,-0.34c-0,-0 -0.02,-0.02 -0.03,-0.03l-0.84,-0.86c-0.2,-0.27 -0.17,-0.65 0.07,-0.88l0.81,-0.78c-0,-0 0.02,-0.04 0.04,-0.05l2.71,-2.59l0.15,-0.14l5.4,-5.17l0.99,-0.95l-7.21,0.8l-10.74,1.18l-58.56,6.4l-12.8,1.39l-13.4,1.46l-0.02,-0l-7.35,0.8l-0.01,-0l-0.37,0.04c-0.25,0.01 -0.47,-0.08 -0.61,-0.27l-0.33,-0.34c-0,-0 -0.02,-0.02 -0.03,-0.03l-0.84,-0.86c-0.2,-0.27 -0.17,-0.65 0.07,-0.88l0.81,-0.78c-0,-0 0.02,-0.04 0.04,-0.05l2.71,-2.59l0.15,-0.14l5.4,-5.17l0.99,-0.95l-7.21,0.8l-0.85,0.09l-0.05,-0l-9.85,1.09l-0.06,-0l-58.44,6.38c-0,-0 -0.05,0.01 -0.08,0.02l-12.8,1.39l-13.4,1.46l-0.02,-0l-7.35,0.8l-0.01,-0l-0.37,0.04c-0.25,0.01 -0.47,-0.08 -0.61,-0.27l-0.33,-0.34c-0,-0 -0.02,-0.02 -0.03,-0.03l-0.84,-0.86c-0.2,-0.27 -0.17,-0.65 0.07,-0.88l0.81,-0.78c-0,-0 0.02,-0.04 0.04,-0.05l2.71,-2.59l0.15,-0.14l5.4,-5.17l0.99,-0.95l-7.21,0.8l-0.85,0.09l-0.05,-0l-9.85,1.09l-0.06,-0l-71.32,7.79l-13.4,1.46l-0.02,-0l-7.35,0.8l-0.01,-0l-0.37,0.04c-0.25,0.01 -0.47,-0.08 -0.61,-0.27l-0.33,-0.34c-0,-0 -0.02,-0.02 -0.03,-0.03l-0.84,-0.86c-0.2,-0.27 -0.17,-0.65 0.07,-0.88l0.81,-0.78c-0,-0 0.02,-0.04 0.04,-0.05l2.71,-2.59l0.15,-0.14l5.4,-5.17l0.99,-0.95l-7.21,0.8l-10.74,1.18l-58.56,6.4l-12.8,1.39l-13.4,1.46l-0.02,-0l-7.35,0.8l-0.01,-0l-0.37,0.04c-0.25,0.01 -0.47,-0.08 -0.61,-0.27l-0.33,-0.34c-0,-0 -0.02,-0.02 -0.03,-0.03l-0.84,-0.86c-0.2,-0.27 -0.17,-0.65 0.07,-0.88l0.81,-0.78c-0,-0 0.02,-0.04 0.04,-0.05l2.71,-2.59l0.15,-0.14l5.4,-5.17l0.99,-0.95l-7.21,0.8l-0.85,0.09l-0.05,-0l-9.85,1.09l-0.06,-0l-71.32,7.79l-13.4,1.46l-0.02,-0l-7.35,0.8l-0.01,-0l-0.37,0.04c-0.25,0.01 -0.47,-0.08 -0.61,-0.27l-0.33,-0.34c-0,-0 -0.02,-0.02 -0.03,-0.03l-0.84,-0.86c-0.2,-0.27 -0.17,-0.65 0.07,-0.88l0.81,-0.78c-0,-0 0.02,-0.04 0.04,-0.05l2.71,-2.59l0.15,-0.14l5.4,-5.17l0.99,-0.95l-7.21,0.8l-10.74,1.18c-0.48,0.05 -0.97,-0.08 -1.35,-0.39c-0.39,-0.31 -0.63,-0.75 -0.68,-1.24l-0.25,0.1Z" style="fill:#ef476b;fill-opacity:0.3;fill-rule:nonzero;"/><path d="M0.011,204.833c-0.11,-1.01 0.62,-1.92 1.63,-2.03l10.58,-1.16l5.36,-0.6l0.69,-0.08l6.74,-0.75l0.05,-0l0.56,-0.06c0.23,-0.02 0.45,0.08 0.59,0.26l0.27,0.29c-0,-0 0.07,0.07 0.1,0.11l0.83,0.89c0.19,0.26 0.16,0.62 -0.07,0.85l-0.85,0.81l-3.07,2.94l-0.01,0.01l-6.18,5.92l2.53,-0.28l94.61,-10.33l5.36,-0.6l0.69,-0.08l6.74,-0.75l0.05,-0l0.56,-0.06c0.23,-0.02 0.45,0.08 0.59,0.26l0.27,0.29c-0,-0 0.07,0.07 0.1,0.11l0.83,0.89c0.19,0.26 0.16,0.62 -0.07,0.85l-0.85,0.81l-3.07,2.94l-0.01,0.01l-6.18,5.92l2.53,-0.28l25.45,-2.77l58.56,-6.4l10.58,-1.16l5.36,-0.6l0.69,-0.08l6.74,-0.75l0.05,-0l0.56,-0.06c0.23,-0.02 0.45,0.08 0.59,0.26l0.27,0.29c-0,-0 0.07,0.07 0.1,0.11l0.83,0.89c0.19,0.26 0.16,0.62 -0.07,0.85l-0.85,0.81l-3.07,2.94l-0.01,0.01l-6.18,5.92l2.53,-0.28l93.93,-10.26l0.68,-0.07l5.36,-0.6l0.69,-0.08l6.74,-0.75l0.04,-0l0.56,-0.06c0.23,-0.02 0.45,0.08 0.59,0.26l0.27,0.29c-0,-0 0.07,0.07 0.1,0.11l0.83,0.89c0.19,0.26 0.16,0.62 -0.07,0.85l-0.85,0.81l-3.07,2.94l-0.01,0.01l-6.18,5.92l2.52,-0.27l94.61,-10.33l5.36,-0.6l0.69,-0.08l6.74,-0.75l0.05,-0l0.56,-0.06c0.23,-0.02 0.45,0.08 0.59,0.26l0.27,0.29c-0,-0 0.07,0.07 0.1,0.11l0.83,0.89c0.19,0.26 0.16,0.62 -0.07,0.85l-0.85,0.81l-3.07,2.94l-0.01,0.01l-6.18,5.92l2.53,-0.28l25.45,-2.77l58.56,-6.4l10.58,-1.16l5.36,-0.6l0.69,-0.08l6.74,-0.75l0.05,-0l0.56,-0.06c0.23,-0.02 0.45,0.08 0.59,0.26l0.27,0.29c-0,-0 0.07,0.07 0.1,0.11l0.83,0.89c0.19,0.26 0.16,0.62 -0.07,0.85l-0.85,0.81l-3.07,2.94l-0.01,0.01l-6.18,5.92l2.53,-0.28l93.94,-10.26l0.67,-0.07l5.36,-0.6l0.69,-0.08l6.74,-0.75l0.04,-0l0.56,-0.06c0.23,-0.02 0.45,0.08 0.59,0.26l0.27,0.29c-0,-0 0.07,0.07 0.1,0.11l0.83,0.89c0.19,0.26 0.16,0.62 -0.07,0.85l-0.85,0.81l-3.07,2.94l-0.01,0.01l-6.18,5.92l2.52,-0.27l94.61,-10.33l5.36,-0.6l0.69,-0.08l6.74,-0.75l0.05,-0l0.56,-0.06c0.23,-0.02 0.45,0.08 0.59,0.26l0.27,0.29c-0,-0 0.07,0.07 0.1,0.11l0.83,0.89c0.19,0.26 0.16,0.62 -0.07,0.85l-0.85,0.81l-3.07,2.94l-0.01,0.01l-6.18,5.92l2.53,-0.28l25.45,-2.77l58.56,-6.4l10.58,-1.16l5.36,-0.6l0.69,-0.08l6.74,-0.75l0.05,-0l0.56,-0.06c0.23,-0.02 0.45,0.08 0.59,0.26l0.27,0.29c-0,-0 0.07,0.07 0.1,0.11l0.83,0.89c0.19,0.26 0.16,0.62 -0.07,0.85l-0.85,0.81l-3.07,2.94l-0.01,0.01l-6.18,5.92l2.53,-0.28l93.93,-10.26l0.68,-0.07l5.36,-0.6l0.69,-0.08l6.74,-0.75l0.04,-0l0.56,-0.06c0.23,-0.02 0.45,0.08 0.59,0.26l0.27,0.29c-0,-0 0.07,0.07 0.1,0.11l0.83,0.89c0.19,0.26 0.16,0.62 -0.07,0.85l-0.85,0.81l-3.07,2.94l-0.01,0.01l-6.18,5.92l2.52,-0.27l94.61,-10.33l5.36,-0.6l0.69,-0.08l6.74,-0.75l0.05,-0l0.56,-0.06c0.23,-0.02 0.45,0.08 0.59,0.26l0.27,0.29c-0,-0 0.07,0.07 0.1,0.11l0.83,0.89c0.19,0.26 0.16,0.62 -0.07,0.85l-0.85,0.81l-3.07,2.94l-0.01,0.01l-6.18,5.92l2.53,-0.28l25.45,-2.77l58.56,-6.4l10.58,-1.16l5.36,-0.6l0.69,-0.08l6.74,-0.75l0.05,-0l0.56,-0.06c0.23,-0.02 0.45,0.08 0.59,0.26l0.27,0.29c-0,-0 0.07,0.07 0.1,0.11l0.83,0.89c0.19,0.26 0.16,0.62 -0.07,0.85l-0.85,0.81l-3.07,2.94l-0.01,0.01l-6.18,5.92l2.53,-0.28l94.61,-10.33l5.36,-0.6l0.69,-0.08l6.74,-0.75l0.05,-0l0.56,-0.06c0.23,-0.02 0.45,0.08 0.59,0.26l0.27,0.29c-0,-0 0.07,0.07 0.1,0.11l0.83,0.89c0.19,0.26 0.16,0.62 -0.07,0.85l-0.85,0.81l-3.07,2.94l-0.01,0.01l-6.18,5.92l2.53,-0.28l25.45,-2.77c0.48,-0.05 0.97,0.08 1.35,0.39c0.39,0.31 0.63,0.75 0.68,1.24c0.11,1.01 -0.62,1.92 -1.63,2.03l-12.8,1.39l-13.4,1.46l-0.02,-0l-7.35,0.8l-0.01,-0l-0.37,0.04c-0.25,0.01 -0.47,-0.08 -0.61,-0.27l-0.33,-0.34c-0,-0 -0.02,-0.02 -0.03,-0.03l-0.84,-0.86c-0.2,-0.27 -0.17,-0.65 0.07,-0.88l0.81,-0.78c-0,-0 0.02,-0.04 0.04,-0.05l2.71,-2.59l0.15,-0.14l5.4,-5.17l0.99,-0.95l-7.21,0.8l-0.85,0.09l-0.05,-0l-9.85,1.09l-0.06,-0l-71.32,7.79l-13.4,1.46l-0.02,-0l-7.35,0.8l-0.01,-0l-0.37,0.04c-0.25,0.01 -0.47,-0.08 -0.61,-0.27l-0.33,-0.34c-0,-0 -0.02,-0.02 -0.03,-0.03l-0.84,-0.86c-0.2,-0.27 -0.17,-0.65 0.07,-0.88l0.81,-0.78c-0,-0 0.02,-0.04 0.04,-0.05l2.71,-2.59l0.15,-0.14l5.4,-5.17l0.99,-0.95l-7.21,0.8l-10.74,1.18l-58.56,6.4l-12.8,1.39l-13.4,1.46l-0.02,-0l-7.35,0.8l-0.01,-0l-0.37,0.04c-0.25,0.01 -0.47,-0.08 -0.61,-0.27l-0.33,-0.34c-0,-0 -0.02,-0.02 -0.03,-0.03l-0.84,-0.86c-0.2,-0.27 -0.17,-0.65 0.07,-0.88l0.81,-0.78c-0,-0 0.02,-0.04 0.04,-0.05l2.71,-2.59l0.15,-0.14l5.4,-5.17l0.99,-0.95l-7.21,0.8l-0.85,0.09l-0.05,-0l-9.85,1.09l-0.06,-0l-58.44,6.38c-0,-0 -0.05,0.01 -0.08,0.02l-12.8,1.39l-13.4,1.46l-0.02,-0l-7.35,0.8l-0.01,-0l-0.37,0.04c-0.25,0.01 -0.47,-0.08 -0.61,-0.27l-0.33,-0.34c-0,-0 -0.02,-0.02 -0.03,-0.03l-0.84,-0.86c-0.2,-0.27 -0.17,-0.65 0.07,-0.88l0.81,-0.78c-0,-0 0.02,-0.04 0.04,-0.05l2.71,-2.59l0.15,-0.14l5.4,-5.17l0.99,-0.95l-7.21,0.8l-0.85,0.09l-0.05,-0l-9.85,1.09l-0.06,-0l-71.32,7.79l-13.4,1.46l-0.02,-0l-7.35,0.8l-0.01,-0l-0.37,0.04c-0.25,0.01 -0.47,-0.08 -0.61,-0.27l-0.33,-0.34c-0,-0 -0.02,-0.02 -0.03,-0.03l-0.84,-0.86c-0.2,-0.27 -0.17,-0.65 0.07,-0.88l0.81,-0.78c-0,-0 0.02,-0.04 0.04,-0.05l2.71,-2.59l0.15,-0.14l5.4,-5.17l0.99,-0.95l-7.21,0.8l-10.74,1.18l-58.56,6.4l-12.8,1.39l-13.4,1.46l-0.02,-0l-7.35,0.8l-0.01,-0l-0.37,0.04c-0.25,0.01 -0.47,-0.08 -0.61,-0.27l-0.33,-0.34c-0,-0 -0.02,-0.02 -0.03,-0.03l-0.84,-0.86c-0.2,-0.27 -0.17,-0.65 0.07,-0.88l0.81,-0.78c-0,-0 0.02,-0.04 0.04,-0.05l2.71,-2.59l0.15,-0.14l5.4,-5.17l0.99,-0.95l-7.21,0.8l-0.85,0.09l-0.05,-0l-9.85,1.09l-0.06,-0l-58.44,6.38c-0,-0 -0.05,0.01 -0.08,0.02l-12.8,1.39l-13.4,1.46l-0.02,-0l-7.35,0.8l-0.01,-0l-0.37,0.04c-0.25,0.01 -0.47,-0.08 -0.61,-0.27l-0.33,-0.34c-0,-0 -0.02,-0.02 -0.03,-0.03l-0.84,-0.86c-0.2,-0.27 -0.17,-0.65 0.07,-0.88l0.81,-0.78c-0,-0 0.02,-0.04 0.04,-0.05l2.71,-2.59l0.15,-0.14l5.4,-5.17l0.99,-0.95l-7.21,0.8l-0.85,0.09l-0.05,-0l-9.85,1.09l-0.06,-0l-71.32,7.79l-13.4,1.46l-0.02,-0l-7.35,0.8l-0.01,-0l-0.37,0.04c-0.25,0.01 -0.47,-0.08 -0.61,-0.27l-0.33,-0.34c-0,-0 -0.02,-0.02 -0.03,-0.03l-0.84,-0.86c-0.2,-0.27 -0.17,-0.65 0.07,-0.88l0.81,-0.78c-0,-0 0.02,-0.04 0.04,-0.05l2.71,-2.59l0.15,-0.14l5.4,-5.17l0.99,-0.95l-7.21,0.8l-10.74,1.18l-58.56,6.4l-12.8,1.39l-13.4,1.46l-0.02,-0l-7.35,0.8l-0.01,-0l-0.37,0.04c-0.25,0.01 -0.47,-0.08 -0.61,-0.27l-0.33,-0.34c-0,-0 -0.02,-0.02 -0.03,-0.03l-0.84,-0.86c-0.2,-0.27 -0.17,-0.65 0.07,-0.88l0.81,-0.78c-0,-0 0.02,-0.04 0.04,-0.05l2.71,-2.59l0.15,-0.14l5.4,-5.17l0.99,-0.95l-7.21,0.8l-0.85,0.09l-0.05,-0l-9.85,1.09l-0.06,-0l-58.44,6.38c-0,-0 -0.05,0.01 -0.08,0.02l-12.8,1.39l-13.4,1.46l-0.02,-0l-7.35,0.8l-0.01,-0l-0.37,0.04c-0.25,0.01 -0.47,-0.08 -0.61,-0.27l-0.33,-0.34c-0,-0 -0.02,-0.02 -0.03,-0.03l-0.84,-0.86c-0.2,-0.27 -0.17,-0.65 0.07,-0.88l0.81,-0.78c-0,-0 0.02,-0.04 0.04,-0.05l2.71,-2.59l0.15,-0.14l5.4,-5.17l0.99,-0.95l-7.21,0.8l-0.85,0.09l-0.05,-0l-9.85,1.09l-0.06,-0l-71.32,7.79l-13.4,1.46l-0.02,-0l-7.35,0.8l-0.01,-0l-0.37,0.04c-0.25,0.01 -0.47,-0.08 -0.61,-0.27l-0.33,-0.34c-0,-0 -0.02,-0.02 -0.03,-0.03l-0.84,-0.86c-0.2,-0.27 -0.17,-0.65 0.07,-0.88l0.81,-0.78c-0,-0 0.02,-0.04 0.04,-0.05l2.71,-2.59l0.15,-0.14l5.4,-5.17l0.99,-0.95l-7.21,0.8l-10.74,1.18l-58.56,6.4l-12.8,1.39l-13.4,1.46l-0.02,-0l-7.35,0.8l-0.01,-0l-0.37,0.04c-0.25,0.01 -0.47,-0.08 -0.61,-0.27l-0.33,-0.34c-0,-0 -0.02,-0.02 -0.03,-0.03l-0.84,-0.86c-0.2,-0.27 -0.17,-0.65 0.07,-0.88l0.81,-0.78c-0,-0 0.02,-0.04 0.04,-0.05l2.71,-2.59l0.15,-0.14l5.4,-5.17l0.99,-0.95l-7.21,0.8l-0.85,0.09l-0.05,-0l-9.85,1.09l-0.06,-0l-71.32,7.79l-13.4,1.46l-0.02,-0l-7.35,0.8l-0.01,-0l-0.37,0.04c-0.25,0.01 -0.47,-0.08 -0.61,-0.27l-0.33,-0.34c-0,-0 -0.02,-0.02 -0.03,-0.03l-0.84,-0.86c-0.2,-0.27 -0.17,-0.65 0.07,-0.88l0.81,-0.78c-0,-0 0.02,-0.04 0.04,-0.05l2.71,-2.59l0.15,-0.14l5.4,-5.17l0.99,-0.95l-7.21,0.8l-10.74,1.18c-0.48,0.05 -0.97,-0.08 -1.35,-0.39c-0.39,-0.31 -0.63,-0.75 -0.68,-1.24l-0.25,0.1Z" style="fill:#ef476b;fill-opacity:0.3;fill-rule:nonzero;"/><path d="M0.011,254.833c-0.11,-1.01 0.62,-1.92 1.63,-2.03l10.58,-1.16l5.36,-0.6l0.69,-0.08l6.74,-0.75l0.05,-0l0.56,-0.06c0.23,-0.02 0.45,0.08 0.59,0.26l0.27,0.29c-0,-0 0.07,0.07 0.1,0.11l0.83,0.89c0.19,0.26 0.16,0.62 -0.07,0.85l-0.85,0.81l-3.07,2.94l-0.01,0.01l-6.18,5.92l2.53,-0.28l94.61,-10.33l5.36,-0.6l0.69,-0.08l6.74,-0.75l0.05,-0l0.56,-0.06c0.23,-0.02 0.45,0.08 0.59,0.26l0.27,0.29c-0,-0 0.07,0.07 0.1,0.11l0.83,0.89c0.19,0.26 0.16,0.62 -0.07,0.85l-0.85,0.81l-3.07,2.94l-0.01,0.01l-6.18,5.92l2.53,-0.28l25.45,-2.77l58.56,-6.4l10.58,-1.16l5.36,-0.6l0.69,-0.08l6.74,-0.75l0.05,-0l0.56,-0.06c0.23,-0.02 0.45,0.08 0.59,0.26l0.27,0.29c-0,-0 0.07,0.07 0.1,0.11l0.83,0.89c0.19,0.26 0.16,0.62 -0.07,0.85l-0.85,0.81l-3.07,2.94l-0.01,0.01l-6.18,5.92l2.53,-0.28l93.93,-10.26l0.68,-0.07l5.36,-0.6l0.69,-0.08l6.74,-0.75l0.04,-0l0.56,-0.06c0.23,-0.02 0.45,0.08 0.59,0.26l0.27,0.29c-0,-0 0.07,0.07 0.1,0.11l0.83,0.89c0.19,0.26 0.16,0.62 -0.07,0.85l-0.85,0.81l-3.07,2.94l-0.01,0.01l-6.18,5.92l2.52,-0.27l94.61,-10.33l5.36,-0.6l0.69,-0.08l6.74,-0.75l0.05,-0l0.56,-0.06c0.23,-0.02 0.45,0.08 0.59,0.26l0.27,0.29c-0,-0 0.07,0.07 0.1,0.11l0.83,0.89c0.19,0.26 0.16,0.62 -0.07,0.85l-0.85,0.81l-3.07,2.94l-0.01,0.01l-6.18,5.92l2.53,-0.28l25.45,-2.77l58.56,-6.4l10.58,-1.16l5.36,-0.6l0.69,-0.08l6.74,-0.75l0.05,-0l0.56,-0.06c0.23,-0.02 0.45,0.08 0.59,0.26l0.27,0.29c-0,-0 0.07,0.07 0.1,0.11l0.83,0.89c0.19,0.26 0.16,0.62 -0.07,0.85l-0.85,0.81l-3.07,2.94l-0.01,0.01l-6.18,5.92l2.53,-0.28l93.94,-10.26l0.67,-0.07l5.36,-0.6l0.69,-0.08l6.74,-0.75l0.04,-0l0.56,-0.06c0.23,-0.02 0.45,0.08 0.59,0.26l0.27,0.29c-0,-0 0.07,0.07 0.1,0.11l0.83,0.89c0.19,0.26 0.16,0.62 -0.07,0.85l-0.85,0.81l-3.07,2.94l-0.01,0.01l-6.18,5.92l2.52,-0.27l94.61,-10.33l5.36,-0.6l0.69,-0.08l6.74,-0.75l0.05,-0l0.56,-0.06c0.23,-0.02 0.45,0.08 0.59,0.26l0.27,0.29c-0,-0 0.07,0.07 0.1,0.11l0.83,0.89c0.19,0.26 0.16,0.62 -0.07,0.85l-0.85,0.81l-3.07,2.94l-0.01,0.01l-6.18,5.92l2.53,-0.28l25.45,-2.77l58.56,-6.4l10.58,-1.16l5.36,-0.6l0.69,-0.08l6.74,-0.75l0.05,-0l0.56,-0.06c0.23,-0.02 0.45,0.08 0.59,0.26l0.27,0.29c-0,-0 0.07,0.07 0.1,0.11l0.83,0.89c0.19,0.26 0.16,0.62 -0.07,0.85l-0.85,0.81l-3.07,2.94l-0.01,0.01l-6.18,5.92l2.53,-0.28l93.93,-10.26l0.68,-0.07l5.36,-0.6l0.69,-0.08l6.74,-0.75l0.04,-0l0.56,-0.06c0.23,-0.02 0.45,0.08 0.59,0.26l0.27,0.29c-0,-0 0.07,0.07 0.1,0.11l0.83,0.89c0.19,0.26 0.16,0.62 -0.07,0.85l-0.85,0.81l-3.07,2.94l-0.01,0.01l-6.18,5.92l2.52,-0.27l94.61,-10.33l5.36,-0.6l0.69,-0.08l6.74,-0.75l0.05,-0l0.56,-0.06c0.23,-0.02 0.45,0.08 0.59,0.26l0.27,0.29c-0,-0 0.07,0.07 0.1,0.11l0.83,0.89c0.19,0.26 0.16,0.62 -0.07,0.85l-0.85,0.81l-3.07,2.94l-0.01,0.01l-6.18,5.92l2.53,-0.28l25.45,-2.77l58.56,-6.4l10.58,-1.16l5.36,-0.6l0.69,-0.08l6.74,-0.75l0.05,-0l0.56,-0.06c0.23,-0.02 0.45,0.08 0.59,0.26l0.27,0.29c-0,-0 0.07,0.07 0.1,0.11l0.83,0.89c0.19,0.26 0.16,0.62 -0.07,0.85l-0.85,0.81l-3.07,2.94l-0.01,0.01l-6.18,5.92l2.53,-0.28l94.61,-10.33l5.36,-0.6l0.69,-0.08l6.74,-0.75l0.05,-0l0.56,-0.06c0.23,-0.02 0.45,0.08 0.59,0.26l0.27,0.29c-0,-0 0.07,0.07 0.1,0.11l0.83,0.89c0.19,0.26 0.16,0.62 -0.07,0.85l-0.85,0.81l-3.07,2.94l-0.01,0.01l-6.18,5.92l2.53,-0.28l25.45,-2.77c0.48,-0.05 0.97,0.08 1.35,0.39c0.39,0.31 0.63,0.75 0.68,1.24c0.11,1.01 -0.62,1.92 -1.63,2.03l-12.8,1.39l-13.4,1.46l-0.02,-0l-7.35,0.8l-0.01,-0l-0.37,0.04c-0.25,0.01 -0.47,-0.08 -0.61,-0.27l-0.33,-0.34c-0,-0 -0.02,-0.02 -0.03,-0.03l-0.84,-0.86c-0.2,-0.27 -0.17,-0.65 0.07,-0.88l0.81,-0.78c-0,-0 0.02,-0.04 0.04,-0.05l2.71,-2.59l0.15,-0.14l5.4,-5.17l0.99,-0.95l-7.21,0.8l-0.85,0.09l-0.05,-0l-9.85,1.09l-0.06,-0l-71.32,7.79l-13.4,1.46l-0.02,-0l-7.35,0.8l-0.01,-0l-0.37,0.04c-0.25,0.01 -0.47,-0.08 -0.61,-0.27l-0.33,-0.34c-0,-0 -0.02,-0.02 -0.03,-0.03l-0.84,-0.86c-0.2,-0.27 -0.17,-0.65 0.07,-0.88l0.81,-0.78c-0,-0 0.02,-0.04 0.04,-0.05l2.71,-2.59l0.15,-0.14l5.4,-5.17l0.99,-0.95l-7.21,0.8l-10.74,1.18l-58.56,6.4l-12.8,1.39l-13.4,1.46l-0.02,-0l-7.35,0.8l-0.01,-0l-0.37,0.04c-0.25,0.01 -0.47,-0.08 -0.61,-0.27l-0.33,-0.34c-0,-0 -0.02,-0.02 -0.03,-0.03l-0.84,-0.86c-0.2,-0.27 -0.17,-0.65 0.07,-0.88l0.81,-0.78c-0,-0 0.02,-0.04 0.04,-0.05l2.71,-2.59l0.15,-0.14l5.4,-5.17l0.99,-0.95l-7.21,0.8l-0.85,0.09l-0.05,-0l-9.85,1.09l-0.06,-0l-58.44,6.38c-0,-0 -0.05,0.01 -0.08,0.02l-12.8,1.39l-13.4,1.46l-0.02,-0l-7.35,0.8l-0.01,-0l-0.37,0.04c-0.25,0.01 -0.47,-0.08 -0.61,-0.27l-0.33,-0.34c-0,-0 -0.02,-0.02 -0.03,-0.03l-0.84,-0.86c-0.2,-0.27 -0.17,-0.65 0.07,-0.88l0.81,-0.78c-0,-0 0.02,-0.04 0.04,-0.05l2.71,-2.59l0.15,-0.14l5.4,-5.17l0.99,-0.95l-7.21,0.8l-0.85,0.09l-0.05,-0l-9.85,1.09l-0.06,-0l-71.32,7.79l-13.4,1.46l-0.02,-0l-7.35,0.8l-0.01,-0l-0.37,0.04c-0.25,0.01 -0.47,-0.08 -0.61,-0.27l-0.33,-0.34c-0,-0 -0.02,-0.02 -0.03,-0.03l-0.84,-0.86c-0.2,-0.27 -0.17,-0.65 0.07,-0.88l0.81,-0.78c-0,-0 0.02,-0.04 0.04,-0.05l2.71,-2.59l0.15,-0.14l5.4,-5.17l0.99,-0.95l-7.21,0.8l-10.74,1.18l-58.56,6.4l-12.8,1.39l-13.4,1.46l-0.02,-0l-7.35,0.8l-0.01,-0l-0.37,0.04c-0.25,0.01 -0.47,-0.08 -0.61,-0.27l-0.33,-0.34c-0,-0 -0.02,-0.02 -0.03,-0.03l-0.84,-0.86c-0.2,-0.27 -0.17,-0.65 0.07,-0.88l0.81,-0.78c-0,-0 0.02,-0.04 0.04,-0.05l2.71,-2.59l0.15,-0.14l5.4,-5.17l0.99,-0.95l-7.21,0.8l-0.85,0.09l-0.05,-0l-9.85,1.09l-0.06,-0l-58.44,6.38c-0,-0 -0.05,0.01 -0.08,0.02l-12.8,1.39l-13.4,1.46l-0.02,-0l-7.35,0.8l-0.01,-0l-0.37,0.04c-0.25,0.01 -0.47,-0.08 -0.61,-0.27l-0.33,-0.34c-0,-0 -0.02,-0.02 -0.03,-0.03l-0.84,-0.86c-0.2,-0.27 -0.17,-0.65 0.07,-0.88l0.81,-0.78c-0,-0 0.02,-0.04 0.04,-0.05l2.71,-2.59l0.15,-0.14l5.4,-5.17l0.99,-0.95l-7.21,0.8l-0.85,0.09l-0.05,-0l-9.85,1.09l-0.06,-0l-71.32,7.79l-13.4,1.46l-0.02,-0l-7.35,0.8l-0.01,-0l-0.37,0.04c-0.25,0.01 -0.47,-0.08 -0.61,-0.27l-0.33,-0.34c-0,-0 -0.02,-0.02 -0.03,-0.03l-0.84,-0.86c-0.2,-0.27 -0.17,-0.65 0.07,-0.88l0.81,-0.78c-0,-0 0.02,-0.04 0.04,-0.05l2.71,-2.59l0.15,-0.14l5.4,-5.17l0.99,-0.95l-7.21,0.8l-10.74,1.18l-58.56,6.4l-12.8,1.39l-13.4,1.46l-0.02,-0l-7.35,0.8l-0.01,-0l-0.37,0.04c-0.25,0.01 -0.47,-0.08 -0.61,-0.27l-0.33,-0.34c-0,-0 -0.02,-0.02 -0.03,-0.03l-0.84,-0.86c-0.2,-0.27 -0.17,-0.65 0.07,-0.88l0.81,-0.78c-0,-0 0.02,-0.04 0.04,-0.05l2.71,-2.59l0.15,-0.14l5.4,-5.17l0.99,-0.95l-7.21,0.8l-0.85,0.09l-0.05,-0l-9.85,1.09l-0.06,-0l-58.44,6.38c-0,-0 -0.05,0.01 -0.08,0.02l-12.8,1.39l-13.4,1.46l-0.02,-0l-7.35,0.8l-0.01,-0l-0.37,0.04c-0.25,0.01 -0.47,-0.08 -0.61,-0.27l-0.33,-0.34c-0,-0 -0.02,-0.02 -0.03,-0.03l-0.84,-0.86c-0.2,-0.27 -0.17,-0.65 0.07,-0.88l0.81,-0.78c-0,-0 0.02,-0.04 0.04,-0.05l2.71,-2.59l0.15,-0.14l5.4,-5.17l0.99,-0.95l-7.21,0.8l-0.85,0.09l-0.05,-0l-9.85,1.09l-0.06,-0l-71.32,7.79l-13.4,1.46l-0.02,-0l-7.35,0.8l-0.01,-0l-0.37,0.04c-0.25,0.01 -0.47,-0.08 -0.61,-0.27l-0.33,-0.34c-0,-0 -0.02,-0.02 -0.03,-0.03l-0.84,-0.86c-0.2,-0.27 -0.17,-0.65 0.07,-0.88l0.81,-0.78c-0,-0 0.02,-0.04 0.04,-0.05l2.71,-2.59l0.15,-0.14l5.4,-5.17l0.99,-0.95l-7.21,0.8l-10.74,1.18l-58.56,6.4l-12.8,1.39l-13.4,1.46l-0.02,-0l-7.35,0.8l-0.01,-0l-0.37,0.04c-0.25,0.01 -0.47,-0.08 -0.61,-0.27l-0.33,-0.34c-0,-0 -0.02,-0.02 -0.03,-0.03l-0.84,-0.86c-0.2,-0.27 -0.17,-0.65 0.07,-0.88l0.81,-0.78c-0,-0 0.02,-0.04 0.04,-0.05l2.71,-2.59l0.15,-0.14l5.4,-5.17l0.99,-0.95l-7.21,0.8l-0.85,0.09l-0.05,-0l-9.85,1.09l-0.06,-0l-71.32,7.79l-13.4,1.46l-0.02,-0l-7.35,0.8l-0.01,-0l-0.37,0.04c-0.25,0.01 -0.47,-0.08 -0.61,-0.27l-0.33,-0.34c-0,-0 -0.02,-0.02 -0.03,-0.03l-0.84,-0.86c-0.2,-0.27 -0.17,-0.65 0.07,-0.88l0.81,-0.78c-0,-0 0.02,-0.04 0.04,-0.05l2.71,-2.59l0.15,-0.14l5.4,-5.17l0.99,-0.95l-7.21,0.8l-10.74,1.18c-0.48,0.05 -0.97,-0.08 -1.35,-0.39c-0.39,-0.31 -0.63,-0.75 -0.68,-1.24l-0.25,0.1Z" style="fill:#ef476b;fill-opacity:0.3;fill-rule:nonzero;"/><path d="M0.011,304.833c-0.11,-1.01 0.62,-1.92 1.63,-2.03l10.58,-1.16l5.36,-0.6l0.69,-0.08l6.74,-0.75l0.05,-0l0.56,-0.06c0.23,-0.02 0.45,0.08 0.59,0.26l0.27,0.29c-0,-0 0.07,0.07 0.1,0.11l0.83,0.89c0.19,0.26 0.16,0.62 -0.07,0.85l-0.85,0.81l-3.07,2.94l-0.01,0.01l-6.18,5.92l2.53,-0.28l94.61,-10.33l5.36,-0.6l0.69,-0.08l6.74,-0.75l0.05,-0l0.56,-0.06c0.23,-0.02 0.45,0.08 0.59,0.26l0.27,0.29c-0,-0 0.07,0.07 0.1,0.11l0.83,0.89c0.19,0.26 0.16,0.62 -0.07,0.85l-0.85,0.81l-3.07,2.94l-0.01,0.01l-6.18,5.92l2.53,-0.28l25.45,-2.77l58.56,-6.4l10.58,-1.16l5.36,-0.6l0.69,-0.08l6.74,-0.75l0.05,-0l0.56,-0.06c0.23,-0.02 0.45,0.08 0.59,0.26l0.27,0.29c-0,-0 0.07,0.07 0.1,0.11l0.83,0.89c0.19,0.26 0.16,0.62 -0.07,0.85l-0.85,0.81l-3.07,2.94l-0.01,0.01l-6.18,5.92l2.53,-0.28l93.93,-10.26l0.68,-0.07l5.36,-0.6l0.69,-0.08l6.74,-0.75l0.04,-0l0.56,-0.06c0.23,-0.02 0.45,0.08 0.59,0.26l0.27,0.29c-0,-0 0.07,0.07 0.1,0.11l0.83,0.89c0.19,0.26 0.16,0.62 -0.07,0.85l-0.85,0.81l-3.07,2.94l-0.01,0.01l-6.18,5.92l2.52,-0.27l94.61,-10.33l5.36,-0.6l0.69,-0.08l6.74,-0.75l0.05,-0l0.56,-0.06c0.23,-0.02 0.45,0.08 0.59,0.26l0.27,0.29c-0,-0 0.07,0.07 0.1,0.11l0.83,0.89c0.19,0.26 0.16,0.62 -0.07,0.85l-0.85,0.81l-3.07,2.94l-0.01,0.01l-6.18,5.92l2.53,-0.28l25.45,-2.77l58.56,-6.4l10.58,-1.16l5.36,-0.6l0.69,-0.08l6.74,-0.75l0.05,-0l0.56,-0.06c0.23,-0.02 0.45,0.08 0.59,0.26l0.27,0.29c-0,-0 0.07,0.07 0.1,0.11l0.83,0.89c0.19,0.26 0.16,0.62 -0.07,0.85l-0.85,0.81l-3.07,2.94l-0.01,0.01l-6.18,5.92l2.53,-0.28l93.94,-10.26l0.67,-0.07l5.36,-0.6l0.69,-0.08l6.74,-0.75l0.04,-0l0.56,-0.06c0.23,-0.02 0.45,0.08 0.59,0.26l0.27,0.29c-0,-0 0.07,0.07 0.1,0.11l0.83,0.89c0.19,0.26 0.16,0.62 -0.07,0.85l-0.85,0.81l-3.07,2.94l-0.01,0.01l-6.18,5.92l2.52,-0.27l94.61,-10.33l5.36,-0.6l0.69,-0.08l6.74,-0.75l0.05,-0l0.56,-0.06c0.23,-0.02 0.45,0.08 0.59,0.26l0.27,0.29c-0,-0 0.07,0.07 0.1,0.11l0.83,0.89c0.19,0.26 0.16,0.62 -0.07,0.85l-0.85,0.81l-3.07,2.94l-0.01,0.01l-6.18,5.92l2.53,-0.28l25.45,-2.77l58.56,-6.4l10.58,-1.16l5.36,-0.6l0.69,-0.08l6.74,-0.75l0.05,-0l0.56,-0.06c0.23,-0.02 0.45,0.08 0.59,0.26l0.27,0.29c-0,-0 0.07,0.07 0.1,0.11l0.83,0.89c0.19,0.26 0.16,0.62 -0.07,0.85l-0.85,0.81l-3.07,2.94l-0.01,0.01l-6.18,5.92l2.53,-0.28l93.93,-10.26l0.68,-0.07l5.36,-0.6l0.69,-0.08l6.74,-0.75l0.04,-0l0.56,-0.06c0.23,-0.02 0.45,0.08 0.59,0.26l0.27,0.29c-0,-0 0.07,0.07 0.1,0.11l0.83,0.89c0.19,0.26 0.16,0.62 -0.07,0.85l-0.85,0.81l-3.07,2.94l-0.01,0.01l-6.18,5.92l2.52,-0.27l94.61,-10.33l5.36,-0.6l0.69,-0.08l6.74,-0.75l0.05,-0l0.56,-0.06c0.23,-0.02 0.45,0.08 0.59,0.26l0.27,0.29c-0,-0 0.07,0.07 0.1,0.11l0.83,0.89c0.19,0.26 0.16,0.62 -0.07,0.85l-0.85,0.81l-3.07,2.94l-0.01,0.01l-6.18,5.92l2.53,-0.28l25.45,-2.77l58.56,-6.4l10.58,-1.16l5.36,-0.6l0.69,-0.08l6.74,-0.75l0.05,-0l0.56,-0.06c0.23,-0.02 0.45,0.08 0.59,0.26l0.27,0.29c-0,-0 0.07,0.07 0.1,0.11l0.83,0.89c0.19,0.26 0.16,0.62 -0.07,0.85l-0.85,0.81l-3.07,2.94l-0.01,0.01l-6.18,5.92l2.53,-0.28l94.61,-10.33l5.36,-0.6l0.69,-0.08l6.74,-0.75l0.05,-0l0.56,-0.06c0.23,-0.02 0.45,0.08 0.59,0.26l0.27,0.29c-0,-0 0.07,0.07 0.1,0.11l0.83,0.89c0.19,0.26 0.16,0.62 -0.07,0.85l-0.85,0.81l-3.07,2.94l-0.01,0.01l-6.18,5.92l2.53,-0.28l25.45,-2.77c0.48,-0.05 0.97,0.08 1.35,0.39c0.39,0.31 0.63,0.75 0.68,1.24c0.11,1.01 -0.62,1.92 -1.63,2.03l-12.8,1.39l-13.4,1.46l-0.02,-0l-7.35,0.8l-0.01,-0l-0.37,0.04c-0.25,0.01 -0.47,-0.08 -0.61,-0.27l-0.33,-0.34c-0,-0 -0.02,-0.02 -0.03,-0.03l-0.84,-0.86c-0.2,-0.27 -0.17,-0.65 0.07,-0.88l0.81,-0.78c-0,-0 0.02,-0.04 0.04,-0.05l2.71,-2.59l0.15,-0.14l5.4,-5.17l0.99,-0.95l-7.21,0.8l-0.85,0.09l-0.05,-0l-9.85,1.09l-0.06,-0l-71.32,7.79l-13.4,1.46l-0.02,-0l-7.35,0.8l-0.01,-0l-0.37,0.04c-0.25,0.01 -0.47,-0.08 -0.61,-0.27l-0.33,-0.34c-0,-0 -0.02,-0.02 -0.03,-0.03l-0.84,-0.86c-0.2,-0.27 -0.17,-0.65 0.07,-0.88l0.81,-0.78c-0,-0 0.02,-0.04 0.04,-0.05l2.71,-2.59l0.15,-0.14l5.4,-5.17l0.99,-0.95l-7.21,0.8l-10.74,1.18l-58.56,6.4l-12.8,1.39l-13.4,1.46l-0.02,-0l-7.35,0.8l-0.01,-0l-0.37,0.04c-0.25,0.01 -0.47,-0.08 -0.61,-0.27l-0.33,-0.34c-0,-0 -0.02,-0.02 -0.03,-0.03l-0.84,-0.86c-0.2,-0.27 -0.17,-0.65 0.07,-0.88l0.81,-0.78c-0,-0 0.02,-0.04 0.04,-0.05l2.71,-2.59l0.15,-0.14l5.4,-5.17l0.99,-0.95l-7.21,0.8l-0.85,0.09l-0.05,-0l-9.85,1.09l-0.06,-0l-58.44,6.38c-0,-0 -0.05,0.01 -0.08,0.02l-12.8,1.39l-13.4,1.46l-0.02,-0l-7.35,0.8l-0.01,-0l-0.37,0.04c-0.25,0.01 -0.47,-0.08 -0.61,-0.27l-0.33,-0.34c-0,-0 -0.02,-0.02 -0.03,-0.03l-0.84,-0.86c-0.2,-0.27 -0.17,-0.65 0.07,-0.88l0.81,-0.78c-0,-0 0.02,-0.04 0.04,-0.05l2.71,-2.59l0.15,-0.14l5.4,-5.17l0.99,-0.95l-7.21,0.8l-0.85,0.09l-0.05,-0l-9.85,1.09l-0.06,-0l-71.32,7.79l-13.4,1.46l-0.02,-0l-7.35,0.8l-0.01,-0l-0.37,0.04c-0.25,0.01 -0.47,-0.08 -0.61,-0.27l-0.33,-0.34c-0,-0 -0.02,-0.02 -0.03,-0.03l-0.84,-0.86c-0.2,-0.27 -0.17,-0.65 0.07,-0.88l0.81,-0.78c-0,-0 0.02,-0.04 0.04,-0.05l2.71,-2.59l0.15,-0.14l5.4,-5.17l0.99,-0.95l-7.21,0.8l-10.74,1.18l-58.56,6.4l-12.8,1.39l-13.4,1.46l-0.02,-0l-7.35,0.8l-0.01,-0l-0.37,0.04c-0.25,0.01 -0.47,-0.08 -0.61,-0.27l-0.33,-0.34c-0,-0 -0.02,-0.02 -0.03,-0.03l-0.84,-0.86c-0.2,-0.27 -0.17,-0.65 0.07,-0.88l0.81,-0.78c-0,-0 0.02,-0.04 0.04,-0.05l2.71,-2.59l0.15,-0.14l5.4,-5.17l0.99,-0.95l-7.21,0.8l-0.85,0.09l-0.05,-0l-9.85,1.09l-0.06,-0l-58.44,6.38c-0,-0 -0.05,0.01 -0.08,0.02l-12.8,1.39l-13.4,1.46l-0.02,-0l-7.35,0.8l-0.01,-0l-0.37,0.04c-0.25,0.01 -0.47,-0.08 -0.61,-0.27l-0.33,-0.34c-0,-0 -0.02,-0.02 -0.03,-0.03l-0.84,-0.86c-0.2,-0.27 -0.17,-0.65 0.07,-0.88l0.81,-0.78c-0,-0 0.02,-0.04 0.04,-0.05l2.71,-2.59l0.15,-0.14l5.4,-5.17l0.99,-0.95l-7.21,0.8l-0.85,0.09l-0.05,-0l-9.85,1.09l-0.06,-0l-71.32,7.79l-13.4,1.46l-0.02,-0l-7.35,0.8l-0.01,-0l-0.37,0.04c-0.25,0.01 -0.47,-0.08 -0.61,-0.27l-0.33,-0.34c-0,-0 -0.02,-0.02 -0.03,-0.03l-0.84,-0.86c-0.2,-0.27 -0.17,-0.65 0.07,-0.88l0.81,-0.78c-0,-0 0.02,-0.04 0.04,-0.05l2.71,-2.59l0.15,-0.14l5.4,-5.17l0.99,-0.95l-7.21,0.8l-10.74,1.18l-58.56,6.4l-12.8,1.39l-13.4,1.46l-0.02,-0l-7.35,0.8l-0.01,-0l-0.37,0.04c-0.25,0.01 -0.47,-0.08 -0.61,-0.27l-0.33,-0.34c-0,-0 -0.02,-0.02 -0.03,-0.03l-0.84,-0.86c-0.2,-0.27 -0.17,-0.65 0.07,-0.88l0.81,-0.78c-0,-0 0.02,-0.04 0.04,-0.05l2.71,-2.59l0.15,-0.14l5.4,-5.17l0.99,-0.95l-7.21,0.8l-0.85,0.09l-0.05,-0l-9.85,1.09l-0.06,-0l-58.44,6.38c-0,-0 -0.05,0.01 -0.08,0.02l-12.8,1.39l-13.4,1.46l-0.02,-0l-7.35,0.8l-0.01,-0l-0.37,0.04c-0.25,0.01 -0.47,-0.08 -0.61,-0.27l-0.33,-0.34c-0,-0 -0.02,-0.02 -0.03,-0.03l-0.84,-0.86c-0.2,-0.27 -0.17,-0.65 0.07,-0.88l0.81,-0.78c-0,-0 0.02,-0.04 0.04,-0.05l2.71,-2.59l0.15,-0.14l5.4,-5.17l0.99,-0.95l-7.21,0.8l-0.85,0.09l-0.05,-0l-9.85,1.09l-0.06,-0l-71.32,7.79l-13.4,1.46l-0.02,-0l-7.35,0.8l-0.01,-0l-0.37,0.04c-0.25,0.01 -0.47,-0.08 -0.61,-0.27l-0.33,-0.34c-0,-0 -0.02,-0.02 -0.03,-0.03l-0.84,-0.86c-0.2,-0.27 -0.17,-0.65 0.07,-0.88l0.81,-0.78c-0,-0 0.02,-0.04 0.04,-0.05l2.71,-2.59l0.15,-0.14l5.4,-5.17l0.99,-0.95l-7.21,0.8l-10.74,1.18l-58.56,6.4l-12.8,1.39l-13.4,1.46l-0.02,-0l-7.35,0.8l-0.01,-0l-0.37,0.04c-0.25,0.01 -0.47,-0.08 -0.61,-0.27l-0.33,-0.34c-0,-0 -0.02,-0.02 -0.03,-0.03l-0.84,-0.86c-0.2,-0.27 -0.17,-0.65 0.07,-0.88l0.81,-0.78c-0,-0 0.02,-0.04 0.04,-0.05l2.71,-2.59l0.15,-0.14l5.4,-5.17l0.99,-0.95l-7.21,0.8l-0.85,0.09l-0.05,-0l-9.85,1.09l-0.06,-0l-71.32,7.79l-13.4,1.46l-0.02,-0l-7.35,0.8l-0.01,-0l-0.37,0.04c-0.25,0.01 -0.47,-0.08 -0.61,-0.27l-0.33,-0.34c-0,-0 -0.02,-0.02 -0.03,-0.03l-0.84,-0.86c-0.2,-0.27 -0.17,-0.65 0.07,-0.88l0.81,-0.78c-0,-0 0.02,-0.04 0.04,-0.05l2.71,-2.59l0.15,-0.14l5.4,-5.17l0.99,-0.95l-7.21,0.8l-10.74,1.18c-0.48,0.05 -0.97,-0.08 -1.35,-0.39c-0.39,-0.31 -0.63,-0.75 -0.68,-1.24l-0.25,0.1Z" style="fill:#ef476b;fill-opacity:0.3;fill-rule:nonzero;"/><path d="M0.011,354.833c-0.11,-1.01 0.62,-1.92 1.63,-2.03l10.58,-1.16l5.36,-0.6l0.69,-0.08l6.74,-0.75l0.05,-0l0.56,-0.06c0.23,-0.02 0.45,0.08 0.59,0.26l0.27,0.29c-0,-0 0.07,0.07 0.1,0.11l0.83,0.89c0.19,0.26 0.16,0.62 -0.07,0.85l-0.85,0.81l-3.07,2.94l-0.01,0.01l-6.18,5.92l2.53,-0.28l94.61,-10.33l5.36,-0.6l0.69,-0.08l6.74,-0.75l0.05,-0l0.56,-0.06c0.23,-0.02 0.45,0.08 0.59,0.26l0.27,0.29c-0,-0 0.07,0.07 0.1,0.11l0.83,0.89c0.19,0.26 0.16,0.62 -0.07,0.85l-0.85,0.81l-3.07,2.94l-0.01,0.01l-6.18,5.92l2.53,-0.28l25.45,-2.77l58.56,-6.4l10.58,-1.16l5.36,-0.6l0.69,-0.08l6.74,-0.75l0.05,-0l0.56,-0.06c0.23,-0.02 0.45,0.08 0.59,0.26l0.27,0.29c-0,-0 0.07,0.07 0.1,0.11l0.83,0.89c0.19,0.26 0.16,0.62 -0.07,0.85l-0.85,0.81l-3.07,2.94l-0.01,0.01l-6.18,5.92l2.53,-0.28l93.93,-10.26l0.68,-0.07l5.36,-0.6l0.69,-0.08l6.74,-0.75l0.04,-0l0.56,-0.06c0.23,-0.02 0.45,0.08 0.59,0.26l0.27,0.29c-0,-0 0.07,0.07 0.1,0.11l0.83,0.89c0.19,0.26 0.16,0.62 -0.07,0.85l-0.85,0.81l-3.07,2.94l-0.01,0.01l-6.18,5.92l2.52,-0.27l94.61,-10.33l5.36,-0.6l0.69,-0.08l6.74,-0.75l0.05,-0l0.56,-0.06c0.23,-0.02 0.45,0.08 0.59,0.26l0.27,0.29c-0,-0 0.07,0.07 0.1,0.11l0.83,0.89c0.19,0.26 0.16,0.62 -0.07,0.85l-0.85,0.81l-3.07,2.94l-0.01,0.01l-6.18,5.92l2.53,-0.28l25.45,-2.77l58.56,-6.4l10.58,-1.16l5.36,-0.6l0.69,-0.08l6.74,-0.75l0.05,-0l0.56,-0.06c0.23,-0.02 0.45,0.08 0.59,0.26l0.27,0.29c-0,-0 0.07,0.07 0.1,0.11l0.83,0.89c0.19,0.26 0.16,0.62 -0.07,0.85l-0.85,0.81l-3.07,2.94l-0.01,0.01l-6.18,5.92l2.53,-0.28l93.94,-10.26l0.67,-0.07l5.36,-0.6l0.69,-0.08l6.74,-0.75l0.04,-0l0.56,-0.06c0.23,-0.02 0.45,0.08 0.59,0.26l0.27,0.29c-0,-0 0.07,0.07 0.1,0.11l0.83,0.89c0.19,0.26 0.16,0.62 -0.07,0.85l-0.85,0.81l-3.07,2.94l-0.01,0.01l-6.18,5.92l2.52,-0.27l94.61,-10.33l5.36,-0.6l0.69,-0.08l6.74,-0.75l0.05,-0l0.56,-0.06c0.23,-0.02 0.45,0.08 0.59,0.26l0.27,0.29c-0,-0 0.07,0.07 0.1,0.11l0.83,0.89c0.19,0.26 0.16,0.62 -0.07,0.85l-0.85,0.81l-3.07,2.94l-0.01,0.01l-6.18,5.92l2.53,-0.28l25.45,-2.77l58.56,-6.4l10.58,-1.16l5.36,-0.6l0.69,-0.08l6.74,-0.75l0.05,-0l0.56,-0.06c0.23,-0.02 0.45,0.08 0.59,0.26l0.27,0.29c-0,-0 0.07,0.07 0.1,0.11l0.83,0.89c0.19,0.26 0.16,0.62 -0.07,0.85l-0.85,0.81l-3.07,2.94l-0.01,0.01l-6.18,5.92l2.53,-0.28l93.93,-10.26l0.68,-0.07l5.36,-0.6l0.69,-0.08l6.74,-0.75l0.04,-0l0.56,-0.06c0.23,-0.02 0.45,0.08 0.59,0.26l0.27,0.29c-0,-0 0.07,0.07 0.1,0.11l0.83,0.89c0.19,0.26 0.16,0.62 -0.07,0.85l-0.85,0.81l-3.07,2.94l-0.01,0.01l-6.18,5.92l2.52,-0.27l94.61,-10.33l5.36,-0.6l0.69,-0.08l6.74,-0.75l0.05,-0l0.56,-0.06c0.23,-0.02 0.45,0.08 0.59,0.26l0.27,0.29c-0,-0 0.07,0.07 0.1,0.11l0.83,0.89c0.19,0.26 0.16,0.62 -0.07,0.85l-0.85,0.81l-3.07,2.94l-0.01,0.01l-6.18,5.92l2.53,-0.28l25.45,-2.77l58.56,-6.4l10.58,-1.16l5.36,-0.6l0.69,-0.08l6.74,-0.75l0.05,-0l0.56,-0.06c0.23,-0.02 0.45,0.08 0.59,0.26l0.27,0.29c-0,-0 0.07,0.07 0.1,0.11l0.83,0.89c0.19,0.26 0.16,0.62 -0.07,0.85l-0.85,0.81l-3.07,2.94l-0.01,0.01l-6.18,5.92l2.53,-0.28l94.61,-10.33l5.36,-0.6l0.69,-0.08l6.74,-0.75l0.05,-0l0.56,-0.06c0.23,-0.02 0.45,0.08 0.59,0.26l0.27,0.29c-0,-0 0.07,0.07 0.1,0.11l0.83,0.89c0.19,0.26 0.16,0.62 -0.07,0.85l-0.85,0.81l-3.07,2.94l-0.01,0.01l-6.18,5.92l2.53,-0.28l25.45,-2.77c0.48,-0.05 0.97,0.08 1.35,0.39c0.39,0.31 0.63,0.75 0.68,1.24c0.11,1.01 -0.62,1.92 -1.63,2.03l-12.8,1.39l-13.4,1.46l-0.02,-0l-7.35,0.8l-0.01,-0l-0.37,0.04c-0.25,0.01 -0.47,-0.08 -0.61,-0.27l-0.33,-0.34c-0,-0 -0.02,-0.02 -0.03,-0.03l-0.84,-0.86c-0.2,-0.27 -0.17,-0.65 0.07,-0.88l0.81,-0.78c-0,-0 0.02,-0.04 0.04,-0.05l2.71,-2.59l0.15,-0.14l5.4,-5.17l0.99,-0.95l-7.21,0.8l-0.85,0.09l-0.05,-0l-9.85,1.09l-0.06,-0l-71.32,7.79l-13.4,1.46l-0.02,-0l-7.35,0.8l-0.01,-0l-0.37,0.04c-0.25,0.01 -0.47,-0.08 -0.61,-0.27l-0.33,-0.34c-0,-0 -0.02,-0.02 -0.03,-0.03l-0.84,-0.86c-0.2,-0.27 -0.17,-0.65 0.07,-0.88l0.81,-0.78c-0,-0 0.02,-0.04 0.04,-0.05l2.71,-2.59l0.15,-0.14l5.4,-5.17l0.99,-0.95l-7.21,0.8l-10.74,1.18l-58.56,6.4l-12.8,1.39l-13.4,1.46l-0.02,-0l-7.35,0.8l-0.01,-0l-0.37,0.04c-0.25,0.01 -0.47,-0.08 -0.61,-0.27l-0.33,-0.34c-0,-0 -0.02,-0.02 -0.03,-0.03l-0.84,-0.86c-0.2,-0.27 -0.17,-0.65 0.07,-0.88l0.81,-0.78c-0,-0 0.02,-0.04 0.04,-0.05l2.71,-2.59l0.15,-0.14l5.4,-5.17l0.99,-0.95l-7.21,0.8l-0.85,0.09l-0.05,-0l-9.85,1.09l-0.06,-0l-58.44,6.38c-0,-0 -0.05,0.01 -0.08,0.02l-12.8,1.39l-13.4,1.46l-0.02,-0l-7.35,0.8l-0.01,-0l-0.37,0.04c-0.25,0.01 -0.47,-0.08 -0.61,-0.27l-0.33,-0.34c-0,-0 -0.02,-0.02 -0.03,-0.03l-0.84,-0.86c-0.2,-0.27 -0.17,-0.65 0.07,-0.88l0.81,-0.78c-0,-0 0.02,-0.04 0.04,-0.05l2.71,-2.59l0.15,-0.14l5.4,-5.17l0.99,-0.95l-7.21,0.8l-0.85,0.09l-0.05,-0l-9.85,1.09l-0.06,-0l-71.32,7.79l-13.4,1.46l-0.02,-0l-7.35,0.8l-0.01,-0l-0.37,0.04c-0.25,0.01 -0.47,-0.08 -0.61,-0.27l-0.33,-0.34c-0,-0 -0.02,-0.02 -0.03,-0.03l-0.84,-0.86c-0.2,-0.27 -0.17,-0.65 0.07,-0.88l0.81,-0.78c-0,-0 0.02,-0.04 0.04,-0.05l2.71,-2.59l0.15,-0.14l5.4,-5.17l0.99,-0.95l-7.21,0.8l-10.74,1.18l-58.56,6.4l-12.8,1.39l-13.4,1.46l-0.02,-0l-7.35,0.8l-0.01,-0l-0.37,0.04c-0.25,0.01 -0.47,-0.08 -0.61,-0.27l-0.33,-0.34c-0,-0 -0.02,-0.02 -0.03,-0.03l-0.84,-0.86c-0.2,-0.27 -0.17,-0.65 0.07,-0.88l0.81,-0.78c-0,-0 0.02,-0.04 0.04,-0.05l2.71,-2.59l0.15,-0.14l5.4,-5.17l0.99,-0.95l-7.21,0.8l-0.85,0.09l-0.05,-0l-9.85,1.09l-0.06,-0l-58.44,6.38c-0,-0 -0.05,0.01 -0.08,0.02l-12.8,1.39l-13.4,1.46l-0.02,-0l-7.35,0.8l-0.01,-0l-0.37,0.04c-0.25,0.01 -0.47,-0.08 -0.61,-0.27l-0.33,-0.34c-0,-0 -0.02,-0.02 -0.03,-0.03l-0.84,-0.86c-0.2,-0.27 -0.17,-0.65 0.07,-0.88l0.81,-0.78c-0,-0 0.02,-0.04 0.04,-0.05l2.71,-2.59l0.15,-0.14l5.4,-5.17l0.99,-0.95l-7.21,0.8l-0.85,0.09l-0.05,-0l-9.85,1.09l-0.06,-0l-71.32,7.79l-13.4,1.46l-0.02,-0l-7.35,0.8l-0.01,-0l-0.37,0.04c-0.25,0.01 -0.47,-0.08 -0.61,-0.27l-0.33,-0.34c-0,-0 -0.02,-0.02 -0.03,-0.03l-0.84,-0.86c-0.2,-0.27 -0.17,-0.65 0.07,-0.88l0.81,-0.78c-0,-0 0.02,-0.04 0.04,-0.05l2.71,-2.59l0.15,-0.14l5.4,-5.17l0.99,-0.95l-7.21,0.8l-10.74,1.18l-58.56,6.4l-12.8,1.39l-13.4,1.46l-0.02,-0l-7.35,0.8l-0.01,-0l-0.37,0.04c-0.25,0.01 -0.47,-0.08 -0.61,-0.27l-0.33,-0.34c-0,-0 -0.02,-0.02 -0.03,-0.03l-0.84,-0.86c-0.2,-0.27 -0.17,-0.65 0.07,-0.88l0.81,-0.78c-0,-0 0.02,-0.04 0.04,-0.05l2.71,-2.59l0.15,-0.14l5.4,-5.17l0.99,-0.95l-7.21,0.8l-0.85,0.09l-0.05,-0l-9.85,1.09l-0.06,-0l-58.44,6.38c-0,-0 -0.05,0.01 -0.08,0.02l-12.8,1.39l-13.4,1.46l-0.02,-0l-7.35,0.8l-0.01,-0l-0.37,0.04c-0.25,0.01 -0.47,-0.08 -0.61,-0.27l-0.33,-0.34c-0,-0 -0.02,-0.02 -0.03,-0.03l-0.84,-0.86c-0.2,-0.27 -0.17,-0.65 0.07,-0.88l0.81,-0.78c-0,-0 0.02,-0.04 0.04,-0.05l2.71,-2.59l0.15,-0.14l5.4,-5.17l0.99,-0.95l-7.21,0.8l-0.85,0.09l-0.05,-0l-9.85,1.09l-0.06,-0l-71.32,7.79l-13.4,1.46l-0.02,-0l-7.35,0.8l-0.01,-0l-0.37,0.04c-0.25,0.01 -0.47,-0.08 -0.61,-0.27l-0.33,-0.34c-0,-0 -0.02,-0.02 -0.03,-0.03l-0.84,-0.86c-0.2,-0.27 -0.17,-0.65 0.07,-0.88l0.81,-0.78c-0,-0 0.02,-0.04 0.04,-0.05l2.71,-2.59l0.15,-0.14l5.4,-5.17l0.99,-0.95l-7.21,0.8l-10.74,1.18l-58.56,6.4l-12.8,1.39l-13.4,1.46l-0.02,-0l-7.35,0.8l-0.01,-0l-0.37,0.04c-0.25,0.01 -0.47,-0.08 -0.61,-0.27l-0.33,-0.34c-0,-0 -0.02,-0.02 -0.03,-0.03l-0.84,-0.86c-0.2,-0.27 -0.17,-0.65 0.07,-0.88l0.81,-0.78c-0,-0 0.02,-0.04 0.04,-0.05l2.71,-2.59l0.15,-0.14l5.4,-5.17l0.99,-0.95l-7.21,0.8l-0.85,0.09l-0.05,-0l-9.85,1.09l-0.06,-0l-71.32,7.79l-13.4,1.46l-0.02,-0l-7.35,0.8l-0.01,-0l-0.37,0.04c-0.25,0.01 -0.47,-0.08 -0.61,-0.27l-0.33,-0.34c-0,-0 -0.02,-0.02 -0.03,-0.03l-0.84,-0.86c-0.2,-0.27 -0.17,-0.65 0.07,-0.88l0.81,-0.78c-0,-0 0.02,-0.04 0.04,-0.05l2.71,-2.59l0.15,-0.14l5.4,-5.17l0.99,-0.95l-7.21,0.8l-10.74,1.18c-0.48,0.05 -0.97,-0.08 -1.35,-0.39c-0.39,-0.31 -0.63,-0.75 -0.68,-1.24l-0.25,0.1Z" style="fill:#ef476b;fill-opacity:0.3;fill-rule:nonzero;"/></svg>