<?xml version="1.0" encoding="UTF-8" standalone="no"?><!DOCTYPE svg PUBLIC "-//W3C//DTD SVG 1.1//EN" "http://www.w3.org/Graphics/SVG/1.1/DTD/svg11.dtd"><svg width="100%" height="100%" viewBox="0 0 692 184" version="1.1" xmlns="http://www.w3.org/2000/svg" xmlns:xlink="http://www.w3.org/1999/xlink" xml:space="preserve" xmlns:serif="http://www.serif.com/" style="fill-rule:evenodd;clip-rule:evenodd;stroke-linejoin:round;stroke-miterlimit:2;"><g><path d="M593.744,151.877l-0.183,3.379l-5.936,0.639l-0.274,3.836l4.84,-0.548l-0.182,3.379l-4.84,0.548l-0.457,7.031l-3.653,0.366l1.187,-17.625l9.498,-1.005Z" style="fill:#092c58;fill-rule:nonzero;"/></g><g><path d="M602.054,150.964c3.561,-0.365 4.84,2.374 4.657,5.296c-0.182,2.375 -1.187,4.84 -3.561,5.662l3.196,6.119l-3.927,0.456l-2.831,-5.661l-0.73,0.091l-0.366,6.027l-3.652,0.365l1.187,-17.625l6.027,-0.73Zm-2.648,3.653l-0.366,4.931l1.827,-0.183c1.735,-0.182 2.191,-1.552 2.283,-2.648c0.091,-1.096 -0.183,-2.374 -1.918,-2.192l-1.826,0.092Z" style="fill:#092c58;fill-rule:nonzero;"/></g><g><path d="M608.355,159.091c0.365,-5.479 4.018,-9.406 8.31,-9.862c4.292,-0.457 7.489,2.739 7.032,8.219c-0.365,5.57 -4.018,9.406 -8.31,9.862c-4.292,0.366 -7.397,-2.739 -7.032,-8.219Zm11.689,-1.278c0.274,-3.47 -1.37,-5.479 -3.653,-5.205c-2.283,0.274 -4.109,2.648 -4.383,6.118c-0.274,3.47 1.37,5.479 3.561,5.205c2.283,-0.274 4.293,-2.739 4.475,-6.118Z" style="fill:#092c58;fill-rule:nonzero;"/></g><g><path d="M639.13,146.946l2.923,-0.274l0.639,17.442l-3.653,0.365l-0.274,-9.771l-3.562,8.219l-2.556,0.274l-2.466,-7.58l-1.553,10.046l-3.652,0.365l2.922,-17.808l2.922,-0.274l3.47,10.137l4.84,-11.141Z" style="fill:#092c58;fill-rule:nonzero;"/></g><g><path d="M657.577,144.937c3.562,-0.366 4.84,2.374 4.658,5.296c-0.183,3.014 -1.827,6.027 -5.48,6.393l-2.465,0.274l-0.366,6.027l-3.653,0.365l1.188,-17.625l6.118,-0.73Zm-2.648,3.652l-0.365,4.932l1.826,-0.183c1.735,-0.182 2.192,-1.552 2.283,-2.648c0.091,-1.096 -0.183,-2.375 -1.918,-2.192l-1.826,0.091Z" style="fill:#092c58;fill-rule:nonzero;"/></g><g><path d="M670.819,143.475c3.561,-0.365 4.84,2.375 4.657,5.297c-0.182,2.374 -1.187,4.84 -3.561,5.662l3.196,6.119l-3.927,0.456l-2.831,-5.662l-0.73,0.092l-0.366,6.027l-3.653,0.365l1.188,-17.625l6.027,-0.731Zm-2.74,3.653l-0.365,4.932l1.826,-0.183c1.735,-0.183 2.192,-1.552 2.283,-2.648c0.092,-1.096 -0.182,-2.375 -1.917,-2.192l-1.827,0.091Z" style="fill:#092c58;fill-rule:nonzero;"/></g><g><path d="M685.613,150.233l4.566,8.676l-4.201,0.456l-2.557,-5.57l-3.379,6.21l-4.201,0.456l5.754,-9.771l-4.11,-7.945l4.201,-0.457l2.283,4.749l2.831,-5.297l4.201,-0.456l-5.388,8.949Z" style="fill:#092c58;fill-rule:nonzero;"/></g><path d="M67.825,149.685c0.274,0.457 0.365,0.914 0.091,1.279c-0.182,0.365 -0.639,0.548 -1.187,0.639l-17.625,1.918c-0.548,0.091 -1.187,-0 -1.735,-0.274c-0.548,-0.274 -1.005,-0.639 -1.37,-1.096l-12.42,-19.725c-0.182,-0.274 -0.365,-0.366 -0.73,-0.366l-12.511,1.37c-0.365,0 -0.548,0.274 -0.548,0.639l-0,20.73c-0,1.37 -0.731,2.192 -2.1,2.375l-15.251,1.735c-1.37,0.182 -2.1,-0.457 -2.1,-1.918l-0,-73.605c-0,-0.548 0.182,-1.096 0.639,-1.552c0.365,-0.457 0.913,-0.731 1.461,-0.822l47.944,-5.388c0.547,-0.091 1.278,-0.091 2.009,0.091c0.73,0.091 1.461,0.274 1.917,0.365l10.137,9.133c0.183,0.456 0.457,1.095 0.639,1.826c0.183,0.731 0.274,1.37 0.274,2.009l0,24.291c0,0.457 -0.091,1.005 -0.365,1.644c-0.183,0.64 -0.457,1.279 -0.731,1.827l-10.136,11.597l13.698,21.278Zm-22.009,-55.614l-26.757,3.013l0,18.904l12.694,-1.461l11.689,-1.279l0.365,0l2.009,-0.182l0,-18.995Z" style="fill:#092c58;fill-rule:nonzero;"/><path d="M146.452,75.441c0.183,0.457 0.457,1.096 0.64,1.918c0.182,0.73 0.274,1.461 0.274,2.009l-0,60.729c-0,0.639 -0.183,1.095 -0.64,1.552c-0.365,0.457 -0.913,0.639 -1.461,0.731l-15.342,1.735c-0.548,0.091 -1.096,-0.092 -1.461,-0.366c-0.365,-0.365 -0.548,-0.821 -0.548,-1.369l0,-20c0,-0.548 -0.182,-1.096 -0.639,-1.37c-0.365,-0.365 -0.913,-0.456 -1.461,-0.365l-21.917,2.466c-0.548,0.091 -1.096,0.274 -1.461,0.73c-0.366,0.457 -0.64,0.914 -0.64,1.553l0,19.999c0,0.639 -0.182,1.096 -0.548,1.553c-0.365,0.456 -0.821,0.639 -1.461,0.73l-15.342,1.735c-0.548,0.092 -1.096,-0.091 -1.461,-0.365c-0.365,-0.365 -0.639,-0.822 -0.639,-1.37l-0,-61.185c0.091,-0.639 0.183,-1.278 0.365,-1.918c0.183,-0.73 0.366,-1.278 0.548,-1.826l10.137,-11.415c0.548,-0.274 1.187,-0.548 1.918,-0.822c0.73,-0.274 1.369,-0.457 2.009,-0.457l1.643,-0.182l6.302,-0.731l22.556,-2.557l3.287,-0.365l1.188,-0.092c0.548,-0.091 1.278,-0.091 2.009,0.092c0.73,0.091 1.461,0.274 1.917,0.365l10.228,8.858Zm-18.629,8.493l-26.118,2.922l0,19.726l26.118,-2.923l-0,-19.725Z" style="fill:#092c58;fill-rule:nonzero;"/><path d="M228.55,66.4c0.183,0.457 0.457,1.096 0.639,1.827c0.183,0.73 0.274,1.37 0.274,2.009l0,47.944c0,0.639 -0.091,1.278 -0.274,2.009c-0.182,0.73 -0.365,1.461 -0.639,1.917l-10.228,11.324c-0.548,0.365 -1.187,0.639 -1.918,0.913c-0.73,0.274 -1.461,0.366 -2.009,0.457l-4.383,0.457l-35.707,4.018l-7.762,0.822c-1.37,0.182 -2.1,-0.457 -2.1,-1.918l-0,-73.696c-0,-0.548 0.182,-1.096 0.639,-1.553c0.365,-0.456 0.913,-0.73 1.461,-0.822l6.849,-0.73l31.506,-3.562l9.497,-1.096c0.548,-0.091 1.279,-0.091 2.009,0.092c0.731,0.091 1.462,0.274 1.918,0.365l10.228,9.223Zm-35.25,11.689l-9.497,1.096l-0,40.182l9.954,-1.096l5.388,-0.639l10.593,-1.188l0,-40.181l-10.502,1.187l-5.936,0.639Z" style="fill:#092c58;fill-rule:nonzero;"/><path d="M266.266,126.855c-0,1.37 -0.731,2.192 -2.101,2.374l-15.25,1.735c-1.37,0.183 -2.101,-0.456 -2.101,-1.917l0,-73.696c0,-1.37 0.731,-2.192 2.101,-2.375l15.25,-1.735c1.37,-0.183 2.101,0.457 2.101,1.918l-0,73.696Z" style="fill:#092c58;fill-rule:nonzero;"/><path d="M347.633,53.067c0.183,0.457 0.457,1.096 0.639,1.827c0.183,0.73 0.274,1.37 0.274,2.009l0,47.852c0,0.64 -0.091,1.279 -0.274,2.009c-0.182,0.731 -0.365,1.461 -0.639,1.918l-10.228,11.415c-0.548,0.366 -1.187,0.639 -1.918,0.913c-0.73,0.274 -1.461,0.366 -2.009,0.457l-2.283,0.274l-26.757,3.014l-5.936,0.639c-0.548,0.091 -1.278,0.091 -2.009,-0c-0.73,-0.091 -1.37,-0.183 -1.918,-0.457l-10.136,-9.132c-0.274,-0.456 -0.548,-1.096 -0.639,-1.826c-0.183,-0.731 -0.183,-1.37 -0.183,-2.009l-0,-47.761c-0,-0.548 0.091,-1.279 0.183,-2.009c0.182,-0.731 0.365,-1.37 0.639,-2.009l10.045,-11.416c0.548,-0.274 1.187,-0.548 1.918,-0.822c0.73,-0.273 1.37,-0.456 2.009,-0.456l4.749,-0.548l23.195,-2.557l7.123,-0.822c0.548,-0.091 1.279,-0.091 2.009,0.091c0.731,0.092 1.461,0.274 1.918,0.366l10.228,9.04Zm-18.721,9.863l-26.026,2.922l-0,40.182l26.026,-2.922l0,-40.182Z" style="fill:#092c58;fill-rule:nonzero;"/><path d="M424.617,72.245c-0,0.639 -0.183,1.096 -0.639,1.552c-0.366,0.457 -0.914,0.731 -1.462,0.822l-15.707,1.735c-0.548,0.092 -1.096,0.274 -1.461,0.731c-0.365,0.457 -0.639,0.913 -0.639,1.552l-0,54.884c-0,0.64 -0.183,1.096 -0.548,1.553c-0.365,0.457 -0.822,0.73 -1.461,0.73l-15.342,1.736c-0.548,0.091 -1.096,-0.092 -1.461,-0.457c-0.366,-0.365 -0.64,-0.822 -0.64,-1.461l0,-54.884c0,-0.548 -0.182,-1.096 -0.548,-1.37c-0.365,-0.365 -0.821,-0.457 -1.461,-0.365l-15.707,1.735c-0.548,0.091 -1.096,-0.092 -1.461,-0.457c-0.365,-0.365 -0.639,-0.822 -0.639,-1.461l-0,-14.703c-0,-1.369 0.73,-2.191 2.1,-2.374l15.707,-1.735l4.11,-0.457l15.342,-1.735l4.109,-0.456l15.707,-1.736c0.548,-0.091 1.096,0.092 1.462,0.457c0.365,0.365 0.639,0.822 0.639,1.461l-0,14.703Z" style="fill:#092c58;fill-rule:nonzero;"/><path d="M500.231,58.09c0.182,0.457 0.456,1.096 0.639,1.827c0.183,0.73 0.274,1.369 0.274,2.009l-0,47.852c-0,0.639 -0.091,1.278 -0.274,2.009c-0.183,0.731 -0.365,1.461 -0.639,1.918l-10.137,11.415c-0.548,0.365 -1.187,0.639 -1.918,0.913c-0.73,0.274 -1.461,0.365 -2.009,0.457l-2.283,0.274l-26.757,3.013l-5.936,0.64c-0.548,0.091 -1.278,0.091 -2.009,-0c-0.73,-0.092 -1.37,-0.183 -1.918,-0.457l-10.136,-9.132c-0.274,-0.457 -0.548,-1.096 -0.639,-1.827c-0.183,-0.73 -0.183,-1.369 -0.183,-2.009l-0,-47.852c-0,-0.548 0.091,-1.278 0.183,-2.009c0.182,-0.731 0.365,-1.37 0.639,-2.009l10.136,-11.415c0.548,-0.274 1.188,-0.548 1.918,-0.822c0.731,-0.274 1.37,-0.457 2.009,-0.457l4.749,-0.548l23.196,-2.557l7.123,-0.822c0.548,-0.091 1.278,-0.091 2.009,0.092c0.73,0.091 1.461,0.274 1.917,0.365l10.046,9.132Zm-18.721,9.863l-26.027,2.922l0,40.181l26.027,-2.922l-0,-40.181Z" style="fill:#092c58;fill-rule:nonzero;"/><path d="M574.749,49.506c0.183,0.457 0.456,1.096 0.639,1.826c0.183,0.731 0.274,1.37 0.274,2.009l0,25.388c0,0.639 -0.091,1.278 -0.274,2.1c-0.183,0.822 -0.365,1.461 -0.639,2.009l-10.137,11.415c-0.548,0.274 -1.187,0.548 -1.918,0.822c-0.73,0.274 -1.461,0.457 -2.009,0.548l-3.196,0.365l-8.036,0.914l-11.324,1.278c-0.548,0.091 -1.096,0.274 -1.461,0.731c-0.365,0.456 -0.639,0.913 -0.639,1.552l-0,18.264c-0,1.37 -0.731,2.192 -2.101,2.375l-15.25,1.735c-1.37,0.183 -2.101,-0.457 -2.101,-1.918l0,-73.696c0,-0.548 0.183,-1.096 0.64,-1.553c0.365,-0.456 0.913,-0.73 1.461,-0.821l33.788,-3.745l5.662,-0.639l2.649,-0.274c0.548,-0.091 1.278,-0.091 2.009,0.092c0.73,0.091 1.461,0.273 1.918,0.365l10.045,8.858Zm-17.99,28.31l-0,-19.726l-21.644,2.466l0,19.725l21.644,-2.465Z" style="fill:#092c58;fill-rule:nonzero;"/><path d="M607.898,110.509c0,1.369 -0.73,2.191 -2.1,2.374l-15.251,1.735c-1.369,0.183 -2.1,-0.457 -2.1,-1.918l0,-73.696c0,-1.37 0.731,-2.192 2.1,-2.374l15.251,-1.735c1.37,-0.183 2.1,0.456 2.1,1.917l0,73.697Z" style="fill:#092c58;fill-rule:nonzero;"/><path d="M689.357,36.63c0.183,0.456 0.457,1.096 0.639,1.917c0.183,0.731 0.274,1.462 0.274,2.009l0,60.729c0,0.639 -0.182,1.096 -0.639,1.553c-0.365,0.456 -0.913,0.639 -1.461,0.73l-15.342,1.735c-0.548,0.092 -1.096,-0.091 -1.461,-0.365c-0.366,-0.365 -0.548,-0.822 -0.548,-1.37l-0,-19.999c-0,-0.548 -0.183,-1.096 -0.639,-1.37c-0.366,-0.365 -0.914,-0.457 -1.462,-0.365l-21.917,2.465c-0.548,0.092 -1.096,0.274 -1.461,0.731c-0.365,0.457 -0.639,0.913 -0.639,1.552l-0,20c-0,0.639 -0.183,1.096 -0.548,1.552c-0.365,0.457 -0.822,0.639 -1.461,0.731l-15.342,1.735c-0.548,0.091 -1.096,-0.091 -1.461,-0.365c-0.366,-0.366 -0.64,-0.822 -0.64,-1.37l0,-61.185c0.092,-0.64 0.183,-1.279 0.366,-1.918c0.182,-0.731 0.365,-1.279 0.548,-1.827l10.136,-11.415c0.548,-0.274 1.188,-0.548 1.918,-0.822c0.731,-0.274 1.37,-0.456 2.009,-0.456l1.644,-0.183l6.301,-0.73l22.556,-2.557l3.288,-0.366l1.187,-0.091c0.548,-0.091 1.279,-0.091 2.009,0.091c0.731,0.092 1.461,0.274 1.918,0.366l10.228,8.858Zm-18.63,8.401l-26.117,2.922l-0,19.726l26.117,-2.922l0,-19.726Z" style="fill:#092c58;fill-rule:nonzero;"/><circle cx="5.726" cy="58.455" r="5.662" style="fill:#092c58;"/><circle cx="684.517" cy="125.12" r="5.662" style="fill:#092c58;"/><path d="M690.088,5.306c-0.183,-3.104 -2.831,-5.479 -5.936,-5.296l-297.068,32.693l15.798,-16.073c0.731,-0.73 0.731,-1.826 0.183,-2.557l-3.927,-3.744c-0.456,-0.548 -1.096,-0.822 -1.826,-0.73l-370.034,40.638c-3.105,0.547 -5.114,3.47 -4.657,6.483c0.456,2.923 3.196,4.932 6.118,4.658l352.318,-38.72l-16.895,16.072c-0.73,0.731 -0.73,1.826 -0.182,2.557l3.926,3.744c0.457,0.548 1.096,0.822 1.827,0.731l315.058,-34.52c3.105,-0.091 5.479,-2.831 5.297,-5.936Z" style="fill:#092c58;fill-rule:nonzero;"/><path d="M667.531,126.946c-0.182,-3.105 -2.831,-5.479 -5.936,-5.296l-310.218,34.245l15.799,-16.072c0.73,-0.731 0.73,-1.827 0.182,-2.557l-3.926,-3.745c-0.457,-0.547 -1.096,-0.821 -1.827,-0.73l-356.883,39.085c-3.105,0.548 -5.114,3.471 -4.657,6.484c0.456,2.922 3.196,4.932 6.118,4.658l338.984,-37.168l-16.894,16.164c-0.731,0.73 -0.731,1.826 -0.183,2.557l3.927,3.744c0.457,0.548 1.096,0.822 1.827,0.73l328.299,-36.071c3.196,-0.274 5.571,-2.923 5.388,-6.028Z" style="fill:#092c58;fill-rule:nonzero;"/></svg>