<?xml version="1.0" encoding="UTF-8" standalone="no"?><!DOCTYPE svg PUBLIC "-//W3C//DTD SVG 1.1//EN" "http://www.w3.org/Graphics/SVG/1.1/DTD/svg11.dtd"><svg width="100%" height="100%" viewBox="0 0 380 380" version="1.1" xmlns="http://www.w3.org/2000/svg" xmlns:xlink="http://www.w3.org/1999/xlink" xml:space="preserve" xmlns:serif="http://www.serif.com/" style="fill-rule:evenodd;clip-rule:evenodd;stroke-linecap:round;"><g><circle cx="189" cy="189" r="175" style="fill:none;stroke:#fc7e0f;stroke-width:23px;"/><path d="M94,115.1c0,-0 -24.2,27.3 -24.2,75c0,47.7 24.2,73.9 24.2,73.9" style="fill:none;fill-rule:nonzero;stroke:#fc7e0f;stroke-width:23px;"/><path d="M286.8,115.1c0,-0 24.2,27.3 24.2,75c0,47.7 -24.2,73.9 -24.2,73.9" style="fill:none;fill-rule:nonzero;stroke:#fc7e0f;stroke-width:23px;"/><path d="M248.2,147c-0,0 16.3,20.3 15.9,43c-0.5,27.3 -15.7,42.3 -15.7,42.3" style="fill:none;fill-rule:nonzero;stroke:#fc7e0f;stroke-width:23px;"/><path d="M131.8,147c0,0 -16.3,20.3 -15.9,43c0.5,27.3 15.7,42.3 15.7,42.3" style="fill:none;fill-rule:nonzero;stroke:#fc7e0f;stroke-width:23px;"/></g><g><circle cx="189" cy="189" r="32" style="fill:#fc7e0f;"/><path d="M194.4,218.9l-22.7,-6.1l-37.8,141.2l22.7,6.1l37.8,-141.2Z" style="fill:#fc7e0f;fill-rule:nonzero;"/><path d="M185.6,218.7l22.6,-6l37.6,141.3l-22.6,6l-37.6,-141.3Z" style="fill:#fc7e0f;fill-rule:nonzero;"/><path d="M164.6,294.9l8.4,-8.6l58.2,56.7l-8.4,8.6l-58.2,-56.7Z" style="fill:#fc7e0f;fill-rule:nonzero;"/><path d="M213.9,295.2l-7.6,-7.7l-57.7,57.3l7.6,7.7l57.7,-57.3Z" style="fill:#fc7e0f;fill-rule:nonzero;"/></g></svg>