<?xml version="1.0" encoding="UTF-8" standalone="no"?><!DOCTYPE svg PUBLIC "-//W3C//DTD SVG 1.1//EN" "http://www.w3.org/Graphics/SVG/1.1/DTD/svg11.dtd"><svg width="100%" height="100%" viewBox="0 0 84 84" version="1.1" xmlns="http://www.w3.org/2000/svg" xmlns:xlink="http://www.w3.org/1999/xlink" xml:space="preserve" xmlns:serif="http://www.serif.com/" style="fill-rule:evenodd;clip-rule:evenodd;stroke-linejoin:round;stroke-miterlimit:2;"><g id="surface1"><g><path d="M83.453,41.727c0,23.046 -18.68,41.73 -41.726,41.73c-23.047,0 -41.727,-18.684 -41.727,-41.73c0,-23.043 18.68,-41.727 41.727,-41.727c23.046,0 41.726,18.684 41.726,41.727" style="fill:#e86256;fill-rule:nonzero;"/></g><path d="M42.113,61.82c-10.883,0 -19.703,-8.824 -19.703,-19.707c0,-10.883 8.82,-19.703 19.703,-19.703c10.883,0 19.703,8.82 19.703,19.703l-7.164,0c0,-6.926 -5.613,-12.539 -12.539,-12.539c-6.925,0 -12.539,5.613 -12.539,12.539c0,6.926 5.614,12.539 12.539,12.539l0,7.168Zm-32.84,-19.707c0,-18.136 14.704,-32.84 32.84,-32.84c18.137,0 32.84,14.704 32.84,32.84l-8.211,0c0,-13.601 -11.023,-24.629 -24.629,-24.629c-13.601,0 -24.629,11.028 -24.629,24.629c0,13.606 11.028,24.633 24.629,24.633l0,8.211c-18.136,0 -32.84,-14.707 -32.84,-32.844" style="fill:#fefefe;fill-rule:nonzero;"/></g></svg>